<svg width="56" height="56" viewBox="0 0 56 56" fill="none" xmlns="http://www.w3.org/2000/svg">
<path d="M21.9298 51.3333H32.5509C33.6101 51.2856 34.5071 50.9898 34.5357 49.3484L33.4192 35.1202C38.6487 36.4943 42.4849 33.3643 43.7731 30.1866C44.6702 27.9059 44.4698 25.4247 43.2769 23.3349C46.6646 20.2049 46.1588 16.1874 45.2618 14.2025C44.3648 12.1222 41.1775 8.08557 35.032 9.53607C33.7342 6.59691 30.585 4.58339 27.2928 4.66927C24.1151 4.66927 21.2331 6.35834 19.7445 9.03985C15.622 8.37186 11.9003 11.0247 10.6121 14.2025C9.52419 16.9794 10.1158 20.1571 12.1007 22.4379C9.68641 25.377 10.0204 28.7933 10.9079 30.7782C11.8049 32.8585 14.9158 36.8951 21.2236 35.3587L20.0403 49.2434C19.964 50.4649 20.651 51.1234 21.9298 51.3333ZM24.0196 47.4589L25.3461 32.7249C25.8709 32.1142 26.3004 31.4271 26.5962 30.6828C26.5962 30.5874 26.5962 30.5874 26.5962 30.5874C27.0924 30.6828 27.6841 30.7878 28.1803 30.7878C28.4761 31.408 28.8578 31.9901 29.3159 32.515L30.4705 47.4685H24.0196V47.4589V47.4589ZM22.6264 11.7214C23.3039 9.6983 24.7544 8.56271 27.0924 8.4482C29.5831 8.55317 31.253 10.1277 31.6634 12.3226C31.921 13.8303 33.3811 14.5842 34.6407 13.8112C38.7823 11.7404 41.0916 14.6033 41.5878 15.7007C42.0841 16.6931 42.5994 19.3556 39.603 21.1591C38.4292 21.8844 38.3242 23.1154 39.1067 24.2414C40.395 25.4343 40.6908 27.2188 40.0992 28.7074C39.5075 30.3965 37.1696 32.2096 34.1445 31.1886C32.7513 30.6923 31.7588 29.6045 31.3676 28.2112C31.1672 27.2188 30.1747 26.5222 29.1823 26.7226C28.2852 26.923 27.1497 26.8371 26.1 26.2263C24.888 25.5774 23.1894 26.4076 23.218 27.8104C23.218 28.3066 23.1226 28.7074 22.9222 29.0987C22.3306 30.7878 20.5365 31.8756 18.6566 31.8756C18.065 31.8756 15.6411 31.618 14.391 29.1941C13.1313 26.379 15.183 24.5277 15.9751 24.0315C17.3111 23.2013 17.5115 21.579 15.9751 20.7583C14.1906 19.6705 13.3985 17.4852 14.1906 15.5957C14.7822 13.9066 17.2252 12.1031 20.0498 13.1146C21.1473 13.4868 22.2161 13.0287 22.6264 11.7214Z" fill="#7E839A"/>
</svg>
