<svg width="56" height="56" viewBox="0 0 56 56" fill="none" xmlns="http://www.w3.org/2000/svg">
<path fill-rule="evenodd" clip-rule="evenodd" d="M24.7513 5.84696C26.9926 5.33532 29.625 5.1333 32.6675 5.1333C39.058 5.1333 43.8454 6.0109 46.9173 9.08284C49.989 12.1548 50.8666 16.9424 50.8666 23.3333C50.8666 26.3745 50.6572 29.0054 50.1362 31.2464C49.4999 33.9828 48.3796 36.2162 46.5409 37.8922C44.9874 39.3083 43.0463 40.2118 40.7589 40.7648C39.8733 44.4145 38.114 47.0777 35.0783 48.7341C32.1352 50.3398 28.2165 50.8666 23.3341 50.8666C17.0067 50.8666 12.2272 49.9866 9.14058 46.9218C6.05067 43.8537 5.1333 39.071 5.1333 32.6666C5.1333 27.7366 5.65894 23.804 7.26461 20.864C8.92207 17.8293 11.5866 16.0941 15.2253 15.2253C15.7753 12.9214 16.677 10.973 18.0959 9.41876C19.7753 7.57902 22.0141 6.47183 24.7513 5.84696ZM19.2956 14.6132C20.5501 14.5119 21.8955 14.4666 23.3341 14.4666C29.7247 14.4666 34.5121 15.3442 37.5839 18.4162C40.6557 21.4881 41.5333 26.2757 41.5333 32.6666C41.5333 34.0968 41.4869 35.4348 41.3841 36.683C42.482 36.2749 43.3414 35.7571 44.026 35.1331C45.1558 34.1032 45.9824 32.6265 46.4998 30.401C46.9308 28.5472 47.1333 26.2309 47.1333 23.3333C47.1333 17.0205 46.1961 13.6415 44.2773 11.7226C42.3586 9.80385 38.9798 8.86663 32.6675 8.86663C29.7614 8.86663 27.4399 9.06259 25.5822 9.48666C23.3515 9.99589 21.8783 10.8127 20.8531 11.9358C20.2251 12.6237 19.7044 13.493 19.2956 14.6132ZM23.3341 18.2C20.8765 18.2 18.8322 18.34 17.1303 18.642C16.8245 18.6963 16.5309 18.7556 16.2489 18.82C13.2828 19.4971 11.5954 20.7232 10.5411 22.6535C9.40595 24.732 8.86663 27.8675 8.86663 32.6666C8.86663 38.966 9.83472 42.3499 11.7711 44.2726C13.7107 46.1985 17.0983 47.1333 23.3341 47.1333C28.0785 47.1333 31.2048 46.5946 33.2902 45.4568C35.2318 44.3974 36.4767 42.7012 37.1665 39.7343C37.2319 39.4531 37.2922 39.1604 37.3474 38.8557C37.6552 37.1574 37.8 35.1178 37.8 32.6666C37.8 26.3538 36.8627 22.9748 34.944 21.056C33.0253 19.1372 29.6465 18.2 23.3341 18.2Z" fill="#7E839A"/>
</svg>
