<svg width="56" height="56" viewBox="0 0 56 56" fill="none" xmlns="http://www.w3.org/2000/svg">
<path fill-rule="evenodd" clip-rule="evenodd" d="M40.3025 6.56763C42.1074 6.8822 43.8257 7.55249 45.0497 8.84092C46.2621 10.1171 46.8823 11.8898 47.1743 13.7463C47.4706 15.6301 47.4611 17.8045 47.2419 20.1029C46.8032 24.7041 45.4973 30.0706 43.7846 35.1556C42.0713 40.242 39.9169 45.1473 37.7298 48.8178C36.6403 50.646 35.5014 52.2383 34.3567 53.3983C33.287 54.4822 31.8776 55.5334 30.2499 55.5334C27.9019 55.5334 26.2033 54.4503 24.988 52.8814C23.854 51.4175 23.1096 49.4952 22.4816 47.6589C22.2756 47.0568 22.0812 46.4611 21.8884 45.8704C21.4586 44.5536 21.0366 43.261 20.5124 41.9734C19.7681 40.1453 18.8975 38.5499 17.7299 37.3208C16.5666 36.0964 15.0634 35.1885 13.3429 34.4124C12.1268 33.8638 10.9105 33.4239 9.6633 32.9728C9.10044 32.7693 8.53128 32.5634 7.95298 32.3443C6.20195 31.6807 4.35448 30.8886 2.94949 29.6827C1.44353 28.3901 0.466553 26.6406 0.466553 24.2808C0.466553 22.6814 1.40779 21.2433 2.45632 20.0967C3.55916 18.8907 5.07577 17.6884 6.81896 16.5374C10.3164 14.2282 14.9885 11.9548 19.8321 10.147C24.6726 8.34048 29.7914 6.9589 34.1911 6.49409C36.3888 6.26191 38.4811 6.25018 40.3025 6.56763ZM5.21134 22.6162C4.34042 23.5685 4.19989 24.117 4.19989 24.2808C4.19989 25.4472 4.61873 26.1955 5.381 26.8498C6.24423 27.5907 7.53738 28.1944 9.27592 28.8532C9.74558 29.0312 10.2521 29.2145 10.7806 29.4058C12.0862 29.8783 13.5263 30.3995 14.8781 31.0093C16.8217 31.8861 18.8081 33.0354 20.4365 34.7495C22.0605 36.459 23.1441 38.5368 23.9701 40.5656C24.5464 41.981 25.0372 43.4836 25.4852 44.8552C25.6676 45.4137 25.8429 45.9505 26.014 46.4508C26.6423 48.2878 27.2239 49.6714 27.9394 50.5952C28.5736 51.4139 29.2479 51.8001 30.2499 51.8001C30.2447 51.8001 30.3673 51.8 30.6458 51.6392C30.9221 51.4796 31.2763 51.2047 31.6994 50.7759C32.5486 49.9155 33.5104 48.6055 34.5226 46.9067C36.5389 43.523 38.5924 38.8748 40.2465 33.9639C41.9012 29.0515 43.1223 23.9769 43.5255 19.7485C43.7272 17.6321 43.7173 15.7947 43.4864 14.3264C43.2511 12.8309 42.8172 11.9114 42.343 11.4122C41.8804 10.9253 41.0411 10.486 39.6615 10.2455C38.2985 10.008 36.5796 9.99587 34.5833 10.2068C30.5949 10.6281 25.7946 11.9066 21.1376 13.6447C16.4838 15.3816 12.0801 17.5374 8.87601 19.6529C7.26847 20.7143 6.02795 21.7232 5.21134 22.6162Z" fill="#7E839A"/>
<path fill-rule="evenodd" clip-rule="evenodd" d="M29.3201 26.9866L19.9868 36.3199L17.3469 33.6801L26.6803 24.3467C27.4092 23.6177 28.5911 23.6177 29.3201 24.3467C30.0491 25.0757 30.0491 26.2576 29.3201 26.9866Z" fill="#7E839A"/>
</svg>
