<svg width="56" height="56" viewBox="0 0 56 56" fill="none" xmlns="http://www.w3.org/2000/svg">
<path fill-rule="evenodd" clip-rule="evenodd" d="M8.0862 12.5579C9.54865 9.45023 12.6743 7.46667 16.1089 7.46667H39.891C43.3256 7.46667 46.4513 9.45021 47.9138 12.5579L49.8006 16.5674C50.4117 17.8659 51.1798 19.9428 50.313 22.0054C49.2379 24.5642 46.7066 26.3667 43.75 26.3667C41.6715 26.3667 39.8011 25.4756 38.5 24.0547C37.1989 25.4756 35.3285 26.3667 33.25 26.3667C31.1715 26.3667 29.3011 25.4756 28 24.0547C26.6989 25.4756 24.8285 26.3667 22.75 26.3667C20.6715 26.3667 18.8011 25.4756 17.5 24.0547C16.1989 25.4756 14.3285 26.3667 12.25 26.3667C9.29338 26.3667 6.76211 24.5642 5.68691 22.0055C4.82017 19.9428 5.58828 17.8659 6.19936 16.5674L8.0862 12.5579ZM19.3666 19.25C19.3666 21.1186 20.8814 22.6333 22.75 22.6333C24.6185 22.6333 26.1333 21.1186 26.1333 19.25C26.1333 18.2191 26.969 17.3833 28 17.3833C29.0309 17.3833 29.8666 18.2191 29.8666 19.25C29.8666 21.1186 31.3814 22.6333 33.25 22.6333C35.1185 22.6333 36.6333 21.1186 36.6333 19.25C36.6333 18.2191 37.469 17.3833 38.5 17.3833C39.5309 17.3833 40.3666 18.2191 40.3666 19.25C40.3666 21.1186 41.8814 22.6333 43.75 22.6333C45.1513 22.6333 46.3578 21.781 46.8712 20.5592C47.069 20.0885 46.9816 19.3449 46.4226 18.1571L44.5358 14.1476L46.2248 13.3528L44.5358 14.1476C43.6891 12.3484 41.8795 11.2 39.891 11.2H16.1089C14.1205 11.2 12.3109 12.3484 11.4642 14.1476L9.57734 18.1571C9.01836 19.3449 8.93092 20.0885 9.12872 20.5592C9.64215 21.781 10.8487 22.6333 12.25 22.6333C14.1185 22.6333 15.6333 21.1186 15.6333 19.25C15.6333 18.2191 16.469 17.3833 17.5 17.3833C18.5309 17.3833 19.3666 18.2191 19.3666 19.25Z" fill="#7E839A"/>
<path fill-rule="evenodd" clip-rule="evenodd" d="M20.3 39.6667C20.3 35.4141 23.7475 31.9667 28 31.9667C32.2526 31.9667 35.7001 35.4141 35.7001 39.6667V49H31.9667V39.6667C31.9667 37.4759 30.1908 35.7 28 35.7C25.8093 35.7 24.0334 37.4759 24.0334 39.6667V49H20.3V39.6667Z" fill="#7E839A"/>
<path fill-rule="evenodd" clip-rule="evenodd" d="M12.3666 23.3334V31.5C12.3666 35.3812 12.3697 38.1279 12.6186 40.2332C12.8625 42.2974 13.3204 43.5005 14.0615 44.4035C14.3718 44.7816 14.7184 45.1282 15.0965 45.4385C15.9995 46.1796 17.2026 46.6375 19.2668 46.8815C21.3721 47.1303 24.1188 47.1334 28 47.1334C31.8811 47.1334 34.6278 47.1303 36.7332 46.8815C38.7973 46.6375 40.0004 46.1796 40.9034 45.4385C41.2815 45.1282 41.6282 44.7816 41.9384 44.4035C42.6796 43.5005 43.1374 42.2974 43.3814 40.2332C43.6302 38.1279 43.6333 35.3812 43.6333 31.5V23.3334H47.3666V31.6211C47.3667 35.3538 47.3667 38.3214 47.0889 40.6715C46.8033 43.0881 46.2018 45.0935 44.8244 46.7719C44.3589 47.339 43.8389 47.859 43.2718 48.3244C41.5934 49.7019 39.588 50.3033 37.1714 50.589C34.8214 50.8668 31.8537 50.8667 28.121 50.8667H27.8789C24.1462 50.8667 21.1786 50.8668 18.8285 50.589C16.4119 50.3033 14.4065 49.7019 12.7281 48.3244C12.161 47.859 11.641 47.339 11.1756 46.7719C9.79812 45.0935 9.19668 43.0881 8.91103 40.6715C8.63324 38.3214 8.63327 35.3538 8.6333 31.6211L8.6333 23.3334H12.3666Z" fill="#7E839A"/>
</svg>
