<svg width="56" height="56" viewBox="0 0 56 56" fill="none" xmlns="http://www.w3.org/2000/svg">
<path fill-rule="evenodd" clip-rule="evenodd" d="M37.0313 8.77448C36.1424 8.5211 35.1678 8.50673 32.5956 8.50673H30.0759C29.1851 8.50673 28.4629 7.78456 28.4629 6.89372C28.4629 6.00287 29.1851 5.2807 30.0759 5.2807H32.5956C32.6756 5.2807 32.7547 5.28069 32.8327 5.28067C35.0866 5.28021 36.5401 5.27991 37.9157 5.67203C38.6698 5.887 39.3967 6.18809 40.082 6.56935C41.332 7.2648 42.3596 8.29278 43.9529 9.88681C44.0081 9.94203 44.064 9.99792 44.1206 10.0545C44.1772 10.1111 44.2331 10.167 44.2883 10.2222C45.8823 11.8155 46.9103 12.8431 47.6057 14.0931C47.987 14.7784 48.2881 15.5053 48.5031 16.2594C48.8952 17.635 48.8949 19.0885 48.8944 21.3424C48.8944 21.4205 48.8944 21.4995 48.8944 21.5795V24.0992C48.8944 24.99 48.1722 25.7122 47.2814 25.7122C46.3905 25.7122 45.6684 24.99 45.6684 24.0992V21.5795C45.6684 19.0072 45.654 18.0327 45.4006 17.1438C45.2535 16.6278 45.0475 16.1304 44.7867 15.6615C44.3373 14.8538 43.6583 14.1545 41.8394 12.3357C40.0206 10.5168 39.3213 9.83782 38.5136 9.38844C38.0447 9.12757 37.5473 8.92156 37.0313 8.77448Z" fill="#7E839A"/>
<path fill-rule="evenodd" clip-rule="evenodd" d="M34.3682 8.54876C34.0014 8.50901 33.4992 8.5068 32.6568 8.5068C29.3951 8.5068 27.0783 8.50901 25.2898 8.70279C23.5315 8.89329 22.476 9.2533 21.6661 9.84172C21.0727 10.2728 20.5509 10.7947 20.1198 11.3881C19.5314 12.1979 19.1714 13.2534 18.9809 15.0117C18.7871 16.8003 18.7849 19.117 18.7849 22.3787V27.3253C18.7849 30.3794 18.7868 32.5486 18.9578 34.2295C19.1261 35.8835 19.4445 36.8849 19.9628 37.6606C20.4728 38.4238 21.1281 39.0791 21.8913 39.5891C22.667 40.1074 23.6684 40.4259 25.3224 40.5941C27.0033 40.7651 29.1725 40.7671 32.2266 40.7671C35.2808 40.7671 37.45 40.7651 39.1309 40.5941C40.7848 40.4259 41.7863 40.1074 42.562 39.5891C43.3252 39.0791 43.9805 38.4238 44.4904 37.6606C45.0087 36.8849 45.3272 35.8835 45.4955 34.2295C45.6665 32.5486 45.6684 30.3794 45.6684 27.3253V21.9486C45.6684 20.8891 45.665 20.2568 45.6041 19.8036C45.5761 19.596 45.5433 19.4919 45.524 19.4451C45.5195 19.4343 45.516 19.4271 45.5139 19.423L45.5109 19.4177L45.5057 19.4148C45.5015 19.4126 45.4944 19.4091 45.4835 19.4047C45.4367 19.3854 45.3327 19.3525 45.125 19.3246C44.6718 19.2636 44.0395 19.2602 42.9801 19.2602L40.7331 19.2602C39.8023 19.2603 38.9488 19.2604 38.2546 19.1671C37.49 19.0643 36.682 18.8225 36.0174 18.1579C35.3527 17.4932 35.1109 16.6852 35.0081 15.9207C34.9148 15.2264 34.9149 14.3729 34.915 13.4421C34.915 13.4101 34.915 13.378 34.915 13.3458V10.765C34.915 9.92264 34.9128 9.42042 34.873 9.05358C34.8497 8.83779 34.8199 8.74938 34.8089 8.72376C34.7775 8.6816 34.7402 8.64425 34.698 8.61292C34.6724 8.60187 34.584 8.57214 34.3682 8.54876ZM34.7157 5.3415C35.3268 5.40771 35.9861 5.56113 36.5896 5.99957C36.9091 6.23172 37.1901 6.5127 37.4222 6.83222C37.8607 7.43569 38.0141 8.09496 38.0803 8.7061C38.1412 9.26791 38.1411 9.94805 38.141 10.6891L38.141 13.3458C38.141 14.4053 38.1445 15.0376 38.2054 15.4908C38.2333 15.6985 38.2662 15.8025 38.2855 15.8493C38.2899 15.8602 38.2934 15.8673 38.2956 15.8714L38.2985 15.8767L38.3038 15.8796C38.3079 15.8818 38.3151 15.8853 38.3259 15.8898C38.3728 15.909 38.4768 15.9419 38.6844 15.9698C39.1376 16.0308 39.7699 16.0342 40.8294 16.0342L43.0763 16.0342C44.0072 16.0341 44.8606 16.034 45.5549 16.1273C46.3194 16.2301 47.1275 16.4719 47.7921 17.1366C48.4567 17.8012 48.6985 18.6092 48.8013 19.3738C48.8947 20.068 48.8946 20.9215 48.8945 21.8524L48.8945 27.4147C48.8945 30.3594 48.8945 32.6927 48.7049 34.556C48.5107 36.4651 48.1043 38.0588 47.1728 39.4529C46.4275 40.5684 45.4697 41.5261 44.3543 42.2714C42.9602 43.2029 41.3664 43.6094 39.4574 43.8036C37.5941 43.9931 35.2608 43.9931 32.3161 43.9931H32.1372C29.1925 43.9931 26.8592 43.9931 24.9959 43.8036C23.0869 43.6094 21.4931 43.2029 20.099 42.2714C18.9836 41.5261 18.0258 40.5684 17.2805 39.4529C16.349 38.0588 15.9426 36.4651 15.7483 34.556C15.5588 32.6927 15.5588 30.3595 15.5588 27.4147L15.5588 22.283C15.5588 19.1384 15.5588 16.6468 15.7736 14.6643C15.9938 12.6314 16.4553 10.9433 17.5099 9.49185C18.14 8.62459 18.9027 7.86191 19.7699 7.23181C21.2214 6.17725 22.9095 5.71577 24.9423 5.49553C26.9249 5.28073 29.4164 5.28075 32.5611 5.28077L32.7328 5.28077C33.4738 5.2807 34.1539 5.28063 34.7157 5.3415Z" fill="#7E839A"/>
<path fill-rule="evenodd" clip-rule="evenodd" d="M16.4897 12.4825L14.3619 13.0527C8.9121 14.5129 5.67797 20.1146 7.13823 25.5644L11.8696 43.2223C13.3299 48.6721 18.9316 51.9062 24.3813 50.4459L36.8458 47.1061C39.4796 46.4003 41.596 44.7272 42.915 42.5714C41.5909 43.2394 40.0995 43.6149 38.5221 43.6149H37.0674C36.731 43.7655 36.3783 43.8915 36.0108 43.99L23.5464 47.3298C19.8176 48.3289 15.9849 46.1161 14.9858 42.3873L10.2543 24.7294C9.2552 21.0006 11.468 17.1679 15.1968 16.1688L16.0719 15.9343V15.3967C16.0719 14.3836 16.2179 13.4053 16.4897 12.4825Z" fill="#7E839A"/>
</svg>
