<svg width="56" height="56" viewBox="0 0 56 56" fill="none" xmlns="http://www.w3.org/2000/svg">
<path d="M49.9661 35.7474H48.5078V15.2396C48.5078 12.4754 46.2589 10.2266 43.4947 10.2266H12.5052C9.74099 10.2266 7.49215 12.4754 7.49215 15.2396V35.7474H6.03381C5.27876 35.7474 4.66663 36.3595 4.66663 37.1146V40.7604C4.66663 43.5246 6.91547 45.7734 9.67965 45.7734H46.3203C49.0844 45.7734 51.3333 43.5246 51.3333 40.7604V37.1146C51.3333 36.3595 50.7212 35.7474 49.9661 35.7474ZM10.2265 15.2396C10.2265 13.9831 11.2487 12.9609 12.5052 12.9609H43.4947C44.7512 12.9609 45.7734 13.9831 45.7734 15.2396V35.7474H33.4687C32.9508 35.7474 32.4775 36.04 32.2458 36.5032L31.7122 37.5703H24.2876L23.754 36.5032C23.5224 36.04 23.0491 35.7474 22.5312 35.7474H10.2265V15.2396ZM48.5989 40.7604C48.5989 42.0169 47.5767 43.0391 46.3203 43.0391H9.67965C8.4232 43.0391 7.401 42.0169 7.401 40.7604V38.4818H21.6862L22.2198 39.5489C22.4515 40.0121 22.9248 40.3047 23.4427 40.3047H32.5572C33.0751 40.3047 33.5485 40.0121 33.7802 39.5489L34.3137 38.4818H48.5989V40.7604Z" fill="#7E839A"/>
<path d="M24.3543 32.102C24.5147 32.102 24.6778 32.0735 24.8368 32.0136C25.5432 31.747 25.8998 30.9581 25.6331 30.2517L20.8853 17.6705C20.8805 17.6579 20.8756 17.6454 20.8705 17.633C20.614 17.0094 20.0129 16.6068 19.3387 16.6068C19.3381 16.6068 19.3375 16.6068 19.337 16.6068C18.6621 16.6075 18.061 17.0115 17.8055 17.636C17.8013 17.6463 17.7972 17.6567 17.7933 17.6671L13.0018 30.2478C12.733 30.9534 13.0872 31.7433 13.7928 32.012C14.4985 32.2811 15.2883 31.9266 15.5571 31.221L16.415 28.9683H22.2263L23.0749 31.217C23.2816 31.7646 23.8017 32.1021 24.3543 32.102V32.102ZM17.4564 26.234L19.334 21.3043L21.1943 26.234H17.4564Z" fill="#7E839A"/>
<path d="M34.7728 32.1016C35.5279 32.1016 36.14 31.4895 36.14 30.7344V26.5186L40.6455 31.6378C40.9158 31.9448 41.2931 32.1017 41.6724 32.1017C41.9932 32.1017 42.3154 31.9895 42.5751 31.7608C43.1419 31.262 43.197 30.3981 42.6981 29.8313L39.2076 25.8653C41.3955 25.4059 43.0389 23.5297 43.0389 21.2904C43.039 18.7078 40.8538 16.6068 38.1679 16.6068H34.777C34.7763 16.6068 34.7757 16.6069 34.7749 16.6069C34.7742 16.6069 34.7736 16.6068 34.7728 16.6068C34.0178 16.6068 33.4056 17.2189 33.4056 17.974V30.7344C33.4056 31.4895 34.0178 32.1016 34.7728 32.1016ZM38.1679 19.3412C39.3262 19.3412 40.3046 20.2338 40.3046 21.2903C40.3046 22.3468 39.3261 23.2394 38.1679 23.2394C37.7052 23.2394 36.8791 23.243 36.16 23.2466C36.1562 22.5411 36.1505 20.0775 36.1484 19.3412H38.1679Z" fill="#7E839A"/>
<path d="M26.6328 25.7213H29.3672C30.1222 25.7213 30.7344 25.1092 30.7344 24.3541C30.7344 23.5991 30.1222 22.9869 29.3672 22.9869H26.6328C25.8778 22.9869 25.2656 23.5991 25.2656 24.3541C25.2656 25.1092 25.8778 25.7213 26.6328 25.7213Z" fill="#7E839A"/>
</svg>
