<svg width="56" height="56" viewBox="0 0 56 56" fill="none" xmlns="http://www.w3.org/2000/svg">
<path fill-rule="evenodd" clip-rule="evenodd" d="M29.3847 10.8294C28.1664 12.1083 27.4166 13.9508 27.4166 16.1575C27.4166 18.2218 28.6531 21.0524 30.4228 23.4787C31.2845 24.6601 32.2051 25.6507 33.0366 26.3259C33.452 26.6633 33.8147 26.897 34.1089 27.0401C34.2538 27.1106 34.3685 27.1524 34.453 27.1756C34.4945 27.187 34.5258 27.1931 34.5475 27.1963C34.5582 27.1979 34.5662 27.1987 34.5715 27.1991C34.5769 27.1995 34.5794 27.1995 34.5794 27.1995C34.5794 27.1995 34.5819 27.1995 34.5873 27.1991C34.5926 27.1987 34.6006 27.1979 34.6113 27.1963C34.633 27.1931 34.6643 27.187 34.7058 27.1756C34.7904 27.1524 34.905 27.1106 35.0499 27.0401C35.3442 26.897 35.7068 26.6633 36.1222 26.3259C36.9537 25.6507 37.8744 24.6601 38.7361 23.4787C40.5058 21.0523 41.7423 18.2218 41.7423 16.1575C41.7423 13.9508 40.9926 12.1083 39.7742 10.8294C38.5643 9.55945 36.8035 8.75 34.5794 8.75C32.3553 8.75 30.5946 9.55945 29.3847 10.8294ZM26.8506 8.41526C28.7602 6.41076 31.4559 5.25 34.5794 5.25C37.7029 5.25 40.3986 6.41075 42.3083 8.41524C44.2094 10.4108 45.2423 13.1471 45.2423 16.1575C45.2423 19.3103 43.5079 22.8758 41.5639 25.5412C40.5687 26.9056 39.4468 28.1348 38.3286 29.0429C37.2898 29.8865 35.9564 30.6995 34.5794 30.6995C33.2025 30.6995 31.8691 29.8865 30.8302 29.0429C29.712 28.1348 28.5902 26.9056 27.595 25.5411C25.651 22.8758 23.9166 19.3103 23.9166 16.1575C23.9166 13.1471 24.9495 10.4108 26.8506 8.41526Z" fill="#7E839A"/>
<path fill-rule="evenodd" clip-rule="evenodd" d="M34.5232 14.1184C33.9028 14.1184 33.3999 14.6213 33.3999 15.2417C33.3999 15.8621 33.9028 16.365 34.5232 16.365C35.1435 16.365 35.6465 15.8621 35.6465 15.2417C35.6465 14.6213 35.1435 14.1184 34.5232 14.1184ZM31.0665 15.2417C31.0665 13.3326 32.6141 11.785 34.5232 11.785C36.4322 11.785 37.9798 13.3326 37.9798 15.2417C37.9798 17.1507 36.4322 18.6983 34.5232 18.6983C32.6141 18.6983 31.0665 17.1507 31.0665 15.2417Z" fill="#7E839A"/>
<path fill-rule="evenodd" clip-rule="evenodd" d="M23.1506 19.2499C23.2742 19.25 23.3995 19.25 23.5265 19.25H26.5474C27.5139 19.25 28.2974 20.0335 28.2974 21C28.2974 21.9665 27.5139 22.75 26.5474 22.75H23.5265C19.6408 22.75 18.155 22.7764 16.9629 23.2134C15.2775 23.8314 13.866 25.0271 12.9794 26.588C12.3523 27.692 12.082 29.1533 11.4432 32.9861C11.0243 35.4994 10.7266 37.2923 10.5948 38.7064C10.4642 40.1086 10.5148 40.9842 10.7068 41.6809C11.2989 43.83 12.8065 45.6097 14.829 46.547C15.4846 46.8509 16.34 47.0448 17.7446 47.1464C19.1612 47.2489 20.9785 47.25 23.5265 47.25H32.4736C35.0216 47.25 36.839 47.2489 38.2555 47.1464C39.6601 47.0448 40.5155 46.8509 41.1712 46.547C43.1937 45.6097 44.7013 43.83 45.2934 41.6809C45.4853 40.9842 45.536 40.1086 45.4053 38.7064C45.2736 37.2923 44.9758 35.4994 44.557 32.9861C43.9181 29.1533 43.6479 27.692 43.0208 26.588C42.4215 25.533 41.5824 24.6447 40.5809 23.989C39.7724 23.4595 39.5461 22.3748 40.0755 21.5663C40.605 20.7577 41.6897 20.5314 42.4982 21.0608C43.9618 22.0192 45.1882 23.3173 46.0641 24.8594C47.0381 26.5742 47.3932 28.7081 47.9476 32.0398C47.9679 32.1618 47.9885 32.2855 48.0093 32.4107L48.0207 32.4789C48.4257 34.9089 48.7453 36.8265 48.8902 38.3817C49.0376 39.9633 49.0223 41.3235 48.6677 42.6105C47.8023 45.7515 45.5988 48.3526 42.6429 49.7225C41.4316 50.2839 40.0925 50.5226 38.5082 50.6373C36.9504 50.75 35.0064 50.75 32.5429 50.75H23.4572C20.9938 50.75 19.0498 50.75 17.492 50.6373C15.9077 50.5226 14.5685 50.2839 13.3573 49.7225C10.4013 48.3526 8.19784 45.7515 7.33249 42.6105C6.97789 41.3235 6.96257 39.9633 7.10993 38.3817C7.25483 36.8266 7.57443 34.909 7.97943 32.4791L7.99082 32.4107C8.0117 32.2855 8.03226 32.1619 8.05256 32.0399C8.60695 28.7082 8.96204 26.5742 9.93605 24.8594C11.2318 22.5781 13.2949 20.8304 15.7581 19.9273C17.6097 19.2485 19.773 19.2491 23.1506 19.2499Z" fill="#7E839A"/>
<path d="M21.5833 28.9495C21.5833 30.5603 20.2775 31.8662 18.6667 31.8662C17.0558 31.8662 15.75 30.5603 15.75 28.9495C15.75 27.3387 17.0558 26.0328 18.6667 26.0328C20.2775 26.0328 21.5833 27.3387 21.5833 28.9495Z" fill="#7E839A"/>
<path fill-rule="evenodd" clip-rule="evenodd" d="M41.4874 31.8474C42.1709 32.5308 42.1709 33.6389 41.4874 34.3223L33.3208 42.4889C32.6742 43.1355 31.6387 43.1753 30.9444 42.5802L24.0082 36.6348L16.9874 43.6556C16.304 44.339 15.196 44.339 14.5126 43.6556C13.8291 42.9722 13.8291 41.8642 14.5126 41.1807L22.6792 33.0141C23.3258 32.3675 24.3613 32.3277 25.0556 32.9228L31.9918 38.8682L39.0126 31.8474C39.696 31.164 40.804 31.164 41.4874 31.8474Z" fill="#7E839A"/>
</svg>
