<svg width="119" height="14" viewBox="0 0 119 14" fill="none" xmlns="http://www.w3.org/2000/svg">
<path d="M3.18266 13.035H7.80666C9.81266 13.035 10.6627 12.185 10.6627 10.179V8.81903C10.6627 6.83003 9.81266 5.98003 7.80666 5.98003H4.20266C3.45466 5.98003 3.18266 5.70803 3.18266 4.96003V4.02503C3.18266 3.27703 3.45466 3.00503 4.20266 3.00503H6.49766C7.24566 3.00503 7.51766 3.27703 7.51766 4.02503V4.48403C7.51766 4.72203 7.61966 4.82403 7.85766 4.82403H9.84666C10.0847 4.82403 10.1867 4.72203 10.1867 4.48403V3.80403C10.1867 1.81503 9.33666 0.965027 7.34766 0.965027H3.38666C1.39766 0.965027 0.54766 1.81503 0.54766 3.80403V5.18103C0.54766 7.17003 1.39766 8.02003 3.38666 8.02003H7.00766C7.75566 8.02003 8.02766 8.29203 8.02766 9.04003V9.97503C8.02766 10.723 7.75566 10.995 7.00766 10.995H4.03266C3.28466 10.995 3.01266 10.723 3.01266 9.97503V9.49903C3.01266 9.26103 2.91066 9.15903 2.67266 9.15903H0.66666C0.42866 9.15903 0.32666 9.26103 0.32666 9.49903V10.179C0.32666 12.185 1.17666 13.035 3.18266 13.035Z" fill="#08162B"/>
<path d="M17.2986 13.035H21.7186C23.7586 13.035 24.7276 12.049 24.7276 10.009V1.39003C24.7276 1.15203 24.6256 1.05003 24.3876 1.05003H22.4326C22.1946 1.05003 22.0926 1.15203 22.0926 1.39003V9.55003C22.0926 10.315 21.7526 10.655 20.9876 10.655H18.0126C17.2476 10.655 16.9076 10.315 16.9076 9.55003V1.39003C16.9076 1.15203 16.8056 1.05003 16.5676 1.05003H14.6126C14.3746 1.05003 14.2726 1.15203 14.2726 1.39003V10.009C14.2726 12.049 15.2586 13.035 17.2986 13.035Z" fill="#08162B"/>
<path d="M37.2763 6.23503V6.09903C37.7353 5.91203 38.1603 5.40203 38.1603 4.19503V3.43003C38.1603 1.84903 37.3443 1.05003 35.5763 1.05003H29.1503C28.9123 1.05003 28.8103 1.15203 28.8103 1.39003V12.61C28.8103 12.848 28.9123 12.95 29.1503 12.95H36.7663C38.7553 12.95 39.6053 12.1 39.6053 10.094V8.83603C39.6053 7.08503 38.7553 6.26903 37.2763 6.23503ZM34.6073 3.09003C35.3043 3.09003 35.5763 3.36203 35.5763 4.05903V4.79003C35.5763 5.53803 35.3043 5.81003 34.5563 5.81003H31.4453V3.09003H34.6073ZM36.9703 9.89003C36.9703 10.638 36.6983 10.91 35.9503 10.91H31.4453V7.85003H35.9503C36.6983 7.85003 36.9703 8.12203 36.9703 8.87003V9.89003Z" fill="#08162B"/>
<path d="M45.5007 13.035H50.1247C52.1307 13.035 52.9807 12.185 52.9807 10.179V8.81903C52.9807 6.83003 52.1307 5.98003 50.1247 5.98003H46.5207C45.7727 5.98003 45.5007 5.70803 45.5007 4.96003V4.02503C45.5007 3.27703 45.7727 3.00503 46.5207 3.00503H48.8157C49.5637 3.00503 49.8357 3.27703 49.8357 4.02503V4.48403C49.8357 4.72203 49.9377 4.82403 50.1757 4.82403H52.1647C52.4027 4.82403 52.5047 4.72203 52.5047 4.48403V3.80403C52.5047 1.81503 51.6547 0.965027 49.6657 0.965027H45.7047C43.7157 0.965027 42.8657 1.81503 42.8657 3.80403V5.18103C42.8657 7.17003 43.7157 8.02003 45.7047 8.02003H49.3257C50.0737 8.02003 50.3457 8.29203 50.3457 9.04003V9.97503C50.3457 10.723 50.0737 10.995 49.3257 10.995H46.3507C45.6027 10.995 45.3307 10.723 45.3307 9.97503V9.49903C45.3307 9.26103 45.2287 9.15903 44.9907 9.15903H42.9847C42.7467 9.15903 42.6447 9.26103 42.6447 9.49903V10.179C42.6447 12.185 43.4947 13.035 45.5007 13.035Z" fill="#08162B"/>
<path d="M59.5317 13.035H64.1217C66.1617 13.035 67.1307 12.049 67.1307 10.009V9.04003C67.1307 8.80203 67.0287 8.70003 66.7907 8.70003H64.8017C64.5637 8.70003 64.4617 8.80203 64.4617 9.04003V9.66903C64.4617 10.434 64.1217 10.774 63.3567 10.774H60.2457C59.4807 10.774 59.1407 10.434 59.1407 9.66903V4.31403C59.1407 3.54903 59.4807 3.20903 60.2457 3.20903H63.3567C64.1217 3.20903 64.4617 3.54903 64.4617 4.31403V4.96003C64.4617 5.19803 64.5637 5.30003 64.8017 5.30003H66.7907C67.0287 5.30003 67.1307 5.19803 67.1307 4.96003V3.97403C67.1307 1.93403 66.1617 0.965027 64.1217 0.965027H59.5317C57.4917 0.965027 56.5057 1.93403 56.5057 3.97403V10.009C56.5057 12.049 57.4917 13.035 59.5317 13.035Z" fill="#08162B"/>
<path d="M81.1113 12.423L77.7793 8.51303V8.44503H78.2383C80.2273 8.44503 81.0773 7.59503 81.0773 5.58903V3.88903C81.0773 1.90003 80.2273 1.05003 78.2383 1.05003H71.3023C71.0643 1.05003 70.9623 1.15203 70.9623 1.39003V12.61C70.9623 12.848 71.0643 12.95 71.3023 12.95H73.2573C73.4953 12.95 73.5973 12.848 73.5973 12.61V8.44503H74.6343L78.1533 12.695C78.3063 12.882 78.4423 12.95 78.6973 12.95H80.9073C81.2133 12.95 81.3153 12.661 81.1113 12.423ZM73.5973 3.20903H77.4223C78.1703 3.20903 78.4423 3.48103 78.4423 4.22903V5.38503C78.4423 6.13303 78.1703 6.40503 77.4223 6.40503H73.5973V3.20903Z" fill="#08162B"/>
<path d="M91.5355 3.20903C91.7735 3.20903 91.8755 3.10703 91.8755 2.86903V1.39003C91.8755 1.15203 91.7735 1.05003 91.5355 1.05003H84.3955C84.1575 1.05003 84.0555 1.15203 84.0555 1.39003V2.86903C84.0555 3.10703 84.1575 3.20903 84.3955 3.20903H86.6395V10.774H84.3955C84.1575 10.774 84.0555 10.876 84.0555 11.114V12.61C84.0555 12.848 84.1575 12.95 84.3955 12.95H91.5355C91.7735 12.95 91.8755 12.848 91.8755 12.61V11.114C91.8755 10.876 91.7735 10.774 91.5355 10.774H89.2745V3.20903H91.5355Z" fill="#08162B"/>
<path d="M103.706 6.23503V6.09903C104.165 5.91203 104.59 5.40203 104.59 4.19503V3.43003C104.59 1.84903 103.774 1.05003 102.006 1.05003H95.5798C95.3418 1.05003 95.2398 1.15203 95.2398 1.39003V12.61C95.2398 12.848 95.3418 12.95 95.5798 12.95H103.196C105.185 12.95 106.035 12.1 106.035 10.094V8.83603C106.035 7.08503 105.185 6.26903 103.706 6.23503ZM101.037 3.09003C101.734 3.09003 102.006 3.36203 102.006 4.05903V4.79003C102.006 5.53803 101.734 5.81003 100.986 5.81003H97.8748V3.09003H101.037ZM103.4 9.89003C103.4 10.638 103.128 10.91 102.38 10.91H97.8748V7.85003H102.38C103.128 7.85003 103.4 8.12203 103.4 8.87003V9.89003Z" fill="#08162B"/>
<path d="M118.333 10.74H112.213V8.02003H116.378C116.616 8.02003 116.718 7.91803 116.718 7.68003V6.23503C116.718 5.99703 116.616 5.89503 116.378 5.89503H112.213V3.26003H118.163C118.401 3.26003 118.503 3.15803 118.503 2.92003V1.39003C118.503 1.15203 118.401 1.05003 118.163 1.05003H109.918C109.68 1.05003 109.578 1.15203 109.578 1.39003V12.61C109.578 12.848 109.68 12.95 109.918 12.95H118.333C118.571 12.95 118.673 12.848 118.673 12.61V11.08C118.673 10.842 118.571 10.74 118.333 10.74Z" fill="#08162B"/>
</svg>
