<svg width="13" height="13" viewBox="0 0 13 13" fill="none" xmlns="http://www.w3.org/2000/svg">
<g clip-path="url(#clip0_150_1328)">
<path fill-rule="evenodd" clip-rule="evenodd" d="M5.14927 2.56189C5.11445 2.35528 5.08822 2.15102 5.07127 1.94673C5.04574 1.6403 5.06152 1.33153 5.05247 1.0251C5.04852 0.895102 5.03297 0.556178 5.03924 0.507428C5.09611 0.0826063 5.43898 0.0175984 5.53927 0.00599125C5.58779 -0.00097303 6.08596 -0.0566624 6.19345 0.495838C6.3253 1.17137 6.36756 1.85154 6.3209 2.51779C6.42977 3.08422 6.61595 3.64832 6.86179 4.15903C7.84004 6.19028 9.70414 6.38761 11.7238 6.36903C12.0344 6.36439 12.2923 6.60814 12.3086 6.91689C12.3248 7.22796 12.0936 7.49724 11.7844 7.5251C10.6555 7.63421 8.65253 8.53958 7.96005 9.48208C7.81519 9.6794 7.73093 10.1553 7.6195 10.6219C7.46397 11.2696 7.27895 11.9103 7.07165 12.1796C7.04054 12.2214 6.66237 12.6485 6.54955 12.7112C6.27841 12.8598 6.06136 12.7739 5.9381 12.6949C5.81483 12.616 5.67531 12.4605 5.61959 12.2028C5.56133 11.9335 5.61054 11.381 5.60149 11.2626C5.56852 10.8331 5.48264 9.99046 5.30737 9.26617C5.21289 8.87617 5.11213 8.51635 4.94545 8.3376C4.32842 7.67599 3.34181 7.7735 2.51097 7.88261C2.41556 7.89422 2.32015 7.90815 2.22497 7.91976C1.88674 8.01958 1.52761 8.09385 1.14805 8.13796C0.574891 8.20528 0.480647 7.67832 0.47554 7.6435C0.464862 7.56689 0.425161 7.17226 0.857179 7.0144C0.904304 6.99815 1.25206 6.92153 1.386 6.89136C1.57265 6.84957 1.76137 6.81708 1.9508 6.7869C3.90754 6.17869 4.97029 4.4701 5.14927 2.56189ZM5.82086 4.67209C6.55954 6.19958 7.68055 6.93779 9.00934 7.27207H9.00911C8.17944 7.70618 7.42473 8.24941 7.02475 8.79494C6.87293 9.00155 6.73365 9.41707 6.60806 9.88368C6.54004 9.44957 6.44812 8.9876 6.3267 8.59295C6.18858 8.1426 6.00262 7.76887 5.79509 7.54601C5.39441 7.11655 4.89159 6.87744 4.35093 6.75905C4.99814 6.18565 5.4889 5.47066 5.82086 4.67209Z" fill="#C2E978"/>
</g>
<defs>
<clipPath id="clip0_150_1328">
<rect width="13" height="13" fill="white"/>
</clipPath>
</defs>
</svg>
