<svg width="405" height="207" viewBox="0 0 405 207" fill="none" xmlns="http://www.w3.org/2000/svg">
<g clip-path="url(#clip0_179_4069)">
<path d="M286.667 66.5441C288.884 65.0728 291.208 64.1364 293.785 64.6047C297.334 65.2428 300.666 66.4278 303.194 69.2399C306.65 73.0808 310.159 76.8575 313.252 80.9897C314.479 82.582 315.184 84.5135 315.271 86.5199C315.388 88.4839 315.342 90.4539 315.134 92.4098C315.033 93.3189 314.953 94.2358 314.856 95.1838C315.398 95.1048 315.92 94.9268 316.396 94.6587C318.49 93.7842 320.589 92.9043 322.957 93.2901C323.172 93.2898 323.385 93.2605 323.592 93.203C324.52 93.0354 325.474 93.0865 326.379 93.3521C327.285 93.6178 328.116 94.0907 328.807 94.7333C330.492 96.1246 331.983 97.7342 333.243 99.5193C335.323 102.67 337.613 105.707 338.948 109.275C340.478 113.36 340.379 117.522 339.407 121.701C339.254 122.379 338.711 122.845 338.436 123.585C338.915 123.359 339.408 123.166 339.912 123.007C340.887 122.777 341.901 122.761 342.883 122.961C343.865 123.162 344.792 123.573 345.601 124.166C346.992 125.19 348.164 126.481 349.048 127.964C351.28 131.426 353.192 135.085 354.758 138.894C357.358 145.178 356.96 151.496 354.465 157.741C353.81 159.393 353.13 161.042 352.526 162.708C351.734 164.909 350.31 166.734 349.094 168.677C345.356 174.627 341.466 180.479 337.76 186.455C334.823 191.132 331.687 195.681 328.37 200.101C322.178 208.381 315.221 215.999 308.383 223.723C305.306 227.196 302.272 230.703 299.091 234.073C296.851 236.477 294.443 238.719 291.885 240.782C290.885 241.543 289.805 242.194 288.665 242.725C284.339 244.938 280.232 247.555 276.401 250.542C272.586 253.419 268.567 256.03 265.125 259.391C260.49 263.846 256.614 269.027 253.65 274.731C252.983 276.025 252.621 277.461 251.647 278.629C251.345 278.997 251.535 279.224 251.896 279.493C253.085 280.266 254.156 281.206 255.075 282.285C255.765 283.181 256.276 284.162 255.943 285.354C255.911 285.471 255.868 285.632 255.92 285.71C256.679 286.859 255.89 287.811 255.522 288.806C254.642 291.202 253.443 293.452 252.407 295.775C252.142 296.362 252.294 296.504 252.825 296.903C255.143 298.65 257.48 300.395 258.875 303.083C259.532 304.281 259.872 305.627 259.86 306.993C259.849 308.358 259.488 309.697 258.811 310.882C255.281 317.583 251.142 323.946 247.864 330.799C243.642 339.523 239.233 348.148 234.764 356.75C233.763 358.681 232.623 360.543 231.565 362.445C231.511 362.58 231.407 362.688 231.274 362.746C231.141 362.804 230.99 362.808 230.854 362.756C222.765 360.934 214.832 358.713 207.722 354.22C205.898 353.14 204.136 351.958 202.444 350.682C201.111 349.548 199.887 348.291 198.79 346.929C198.356 346.431 198.554 346.048 198.794 345.602C199.105 345.026 199.469 345.422 199.805 345.537C200.902 345.945 201.967 346.415 203.087 346.761C203.591 346.933 204.357 347.167 204.572 346.566C204.787 345.965 204.065 345.633 203.544 345.483C199.823 344.39 196.662 342.274 193.559 340.045C192.648 339.388 192.211 338.413 191.535 337.556C191.505 337.521 191.483 337.48 191.471 337.435C191.459 337.39 191.456 337.344 191.464 337.298C191.471 337.252 191.489 337.209 191.515 337.171C191.541 337.132 191.575 337.1 191.615 337.077C191.744 336.945 191.905 336.851 192.083 336.803C192.26 336.756 192.447 336.756 192.625 336.805C194.476 337.429 196.371 337.999 198.243 338.586C198.301 338.607 198.358 338.633 198.413 338.662C199.004 338.968 199.678 338.931 199.942 338.369C200.205 337.808 199.612 337.439 199.094 337.219C196.462 336.064 193.871 334.924 191.264 333.672C188.508 332.361 186.719 330.253 184.748 327.941C170.124 310.843 142.415 300.817 142.175 300.728C139.071 299.471 135.976 298.204 132.872 296.947C130.188 295.856 127.399 295.143 124.782 293.892C122.711 292.872 120.77 291.608 118.999 290.128C118.758 289.931 118.578 289.703 118.206 289.872C117.496 290.183 117.204 289.73 117.017 289.139C116.855 288.623 116.811 288.076 116.891 287.54C116.97 287.005 117.169 286.495 117.474 286.048C121.295 280.041 125.131 274.037 129.336 268.292C133.673 262.332 137.794 256.231 141.782 250.031C143.16 247.89 144.606 245.797 145.865 243.55C146.313 242.863 146.991 242.359 147.778 242.126C148.565 241.894 149.41 241.949 150.161 242.282C150.625 242.502 150.834 242.432 151.137 242.073C153.872 238.677 156.399 235.119 158.704 231.417C159.082 230.726 159.533 230.077 160.048 229.482C160.469 229.076 160.952 228.257 161.898 228.523C162.478 228.677 163.733 228.106 164.534 226.976C165.335 225.846 173.326 214.377 174.584 211.585C176.222 207.969 178.424 204.396 178.635 200.371C178.784 197.783 178.385 195.192 177.465 192.767C175.048 186.554 173.02 180.194 170.477 173.994C166.384 163.951 162 154.035 157.229 144.295C156.123 142.152 155.214 139.912 154.515 137.605C154.128 136.209 153.849 134.786 153.68 133.348C153.087 128.611 152.746 123.884 152.578 119.12C152.259 111.62 151.035 104.184 148.933 96.975C147.976 93.6004 146.862 90.2855 145.833 86.9327C143.653 80.1639 140.241 73.8537 135.771 68.3193C133.538 65.4634 131.333 62.5851 129.019 59.7962C127.867 58.4062 126.426 57.2609 125.246 55.8834C120.093 49.8758 122.194 43.9152 125.27 41.2193C127.782 39.0163 130.855 38.1583 134.063 37.7048C138.267 37.0153 142.576 37.358 146.621 38.7033C152.809 40.9141 158.763 43.541 163.915 47.7798C166.255 49.6965 168.053 52.1431 170.106 54.3435C177.262 61.9915 180.709 71.3363 182.708 81.3692C183.532 85.5283 184.261 89.7067 185.756 93.6916C187.155 97.6249 189.741 101.029 193.156 103.433C193.398 103.643 193.689 103.789 194.003 103.857C194.316 103.925 194.642 103.913 194.949 103.822C195.503 103.659 196.09 103.586 196.681 103.454C197.958 103.103 199.127 102.441 200.085 101.527C205.169 97.3855 208.981 92.0768 213.098 87.0625C216.601 82.7867 220.334 78.7977 224.181 74.8664C226.183 72.8266 227.986 70.6148 229.831 68.4284C235.033 62.2019 241.167 56.8179 248.016 52.4667C249.808 51.3355 251.759 50.4776 253.805 49.9211C256.624 49.1506 259.518 48.6827 262.437 48.5254C266.622 48.3097 270.376 49.6695 273.763 52.0333C275.663 53.3399 277.61 54.5778 279.528 55.917C282.84 58.2194 285.398 61.1366 286.439 65.1515C286.529 65.5554 286.563 65.9942 286.667 66.5441ZM258.823 238.535C260.609 239.239 262.342 239.766 264.276 238.814C265.921 238.008 267.86 237.891 269.5 237.046C274.073 234.785 278.283 231.855 281.991 228.352C282.857 227.339 283.916 226.506 285.106 225.903C285.146 226.358 285.091 226.815 284.943 227.247C284.796 227.678 284.561 228.074 284.252 228.41C282.35 230.661 280.079 232.573 277.536 234.063C274.065 236.115 270.604 238.21 266.798 239.656C266.68 239.702 266.489 239.706 266.544 239.966C266.88 239.982 267.213 240.023 267.547 240.02C268.71 239.999 269.968 240.341 271.019 239.845C273.629 238.759 276.115 237.397 278.435 235.783C282.155 233.064 285.547 229.923 288.545 226.424C290.889 223.62 293.428 220.984 296.143 218.537C300.295 214.855 303.7 210.491 307.394 206.407C312.5 200.765 316.412 194.145 320.423 187.686C321.044 186.677 321.852 185.767 322.107 184.538C322.53 182.706 322.808 180.843 322.94 178.968C322.982 178.666 322.916 178.359 322.755 178.101C321.821 176.827 322.17 175.997 323.621 175.122L330.547 170.971C330.976 170.727 331.459 170.595 331.953 170.587C332.442 170.558 332.681 170.648 332.565 171.249C332.289 172.583 331.855 173.88 331.271 175.11C330.156 177.564 328.543 179.762 327.132 182.063C325.182 185.252 323.232 188.451 321.141 191.561C317.982 196.283 314.437 200.734 310.543 204.869C305.481 210.163 301.145 216.133 295.62 221.02C292.094 224.134 289.239 227.914 285.85 231.166C283.012 233.888 280.146 236.568 276.602 238.381C276.466 238.448 276.237 238.466 276.254 238.73C277.443 238.534 278.491 237.812 279.695 237.806C279.893 237.811 280.09 237.776 280.273 237.702C280.457 237.628 280.623 237.517 280.762 237.377C282.959 235.416 285.06 233.332 287.392 231.545C293.773 226.661 298.909 220.544 304.334 214.708C305.922 212.999 307.326 211.121 308.866 209.373C314.075 203.521 318.82 197.273 323.058 190.684C324.592 188.288 325.999 185.805 327.596 183.452C330.097 179.776 332.515 176.049 334.661 172.162C335.613 170.432 336.519 168.682 337.549 166.748C335.328 167.412 333.212 168.385 331.263 169.637C327.888 171.803 324.514 173.933 321.111 176.111C319.987 176.867 318.726 177.393 317.398 177.661C313.967 178.33 310.413 177.962 307.188 176.603C304.108 175.285 301.105 173.817 298.164 172.22C295.685 170.877 293.604 169.136 292.426 166.555C291.952 165.601 291.195 164.817 290.26 164.307C287.478 162.537 284.274 162.199 281.166 161.537C280.94 161.486 280.743 161.485 280.626 161.738C280.31 162.183 280.041 162.661 279.825 163.163C279.746 163.478 279.591 163.77 279.373 164.012C279.156 164.254 278.884 164.44 278.579 164.553C278.074 164.765 277.752 164.645 277.604 164.094C277.501 163.771 277.463 163.432 277.494 163.094C277.524 162.757 277.622 162.43 277.781 162.131C277.935 161.835 277.99 161.497 277.935 161.168C277.899 160.763 277.587 160.784 277.356 160.694C276.943 160.587 277.032 160.937 276.98 161.154L276.392 163.28C276.121 164.383 275.754 165.46 275.294 166.498C275.104 166.905 274.781 167.453 274.324 167.356C273.867 167.258 274.029 166.623 274.028 166.22C273.94 164.953 273.936 163.681 274.015 162.414C273.899 162.519 273.81 162.651 273.754 162.798L270.706 169.795C270.602 170.147 270.425 170.473 270.186 170.752C269.947 171.03 269.652 171.255 269.32 171.411C269.203 171.168 269.139 170.904 269.129 170.635C269.12 170.366 269.167 170.098 269.266 169.849C269.573 168.983 269.889 168.117 270.231 167.263C270.515 166.414 270.62 165.515 270.541 164.623C270.146 164.841 269.802 165.141 269.533 165.503C267.568 167.466 267.118 170.134 266.082 172.501C265.826 173.187 265.378 173.784 264.79 174.22C263.874 174.778 262.918 175.267 261.929 175.681C261.194 176.044 261.554 176.696 261.465 177.231C261.417 177.486 261.361 177.806 261.762 177.884C262.729 178.069 262.568 178.724 262.23 179.268C261.695 180.117 258.858 181.615 258.66 181.703C254.077 184.022 249.123 185.448 244.359 187.332C243.906 187.531 243.412 187.616 242.919 187.582C242.271 187.533 242.091 187.315 242.519 186.728C243.108 186.054 243.881 185.567 244.742 185.324C249.318 183.463 253.982 181.8 258.212 179.192C259.42 178.449 259.468 178.435 259.154 177.026C257.98 177.466 256.792 177.868 255.636 178.35C253.395 179.283 251.173 180.259 248.951 181.225C248.364 181.498 247.712 181.602 247.069 181.523C246.571 181.454 246.533 181.227 246.776 180.854C247.153 180.329 247.674 179.924 248.276 179.689C251.542 178.203 254.795 176.679 258.089 175.224C258.466 175.123 258.79 174.88 258.992 174.547C259.193 174.213 259.258 173.813 259.173 173.432C259.089 172.649 259.001 172.452 258.185 172.793C252.899 175.018 247.588 177.187 242.272 179.406C241.666 179.713 240.991 179.855 240.313 179.82C239.841 179.764 239.827 179.583 240.072 179.23C240.463 178.715 241 178.33 241.613 178.125C246.797 175.968 251.905 173.632 256.951 171.175C259.074 170.145 259.074 170.145 258.393 167.765C258.161 167.852 257.934 167.933 257.712 168.029L251.05 170.94C250.638 171.152 250.188 171.278 249.726 171.312C249.308 171.309 248.753 171.407 248.55 171C248.347 170.593 248.814 170.252 249.098 169.949C249.408 169.65 249.771 169.411 250.168 169.244L256.419 166.112C257.799 165.411 257.75 165.416 257.281 163.969C257.003 163.116 256.704 163.166 255.997 163.515C250.45 166.224 244.691 168.437 238.906 170.584C238.257 170.83 237.23 171.123 237.003 170.482C236.777 169.841 237.763 169.434 238.424 169.162C240.236 168.414 242.075 167.687 243.85 166.908C247.55 165.413 251.127 163.632 254.55 161.58C256.07 160.619 256.045 160.617 255.272 158.983C255.035 158.476 254.842 158.416 254.31 158.65C252.549 159.512 250.763 160.326 248.984 161.165C245.49 162.831 241.776 163.968 238.234 165.55C235.715 166.693 233.14 167.629 230.522 168.575C230.035 168.776 229.502 168.837 228.982 168.751C228.761 168.704 228.435 168.741 228.355 168.425C228.274 168.109 228.554 168.061 228.744 167.949C228.924 167.787 229.128 167.652 229.348 167.551C232.802 166.272 236.212 164.894 239.627 163.511C242.764 162.195 245.82 160.693 248.779 159.013C248.836 158.995 248.888 158.966 248.933 158.926C248.978 158.887 249.015 158.839 249.04 158.784C249.065 158.73 249.078 158.671 249.079 158.611C249.08 158.551 249.069 158.492 249.045 158.437C248.614 156.681 248.36 156.554 246.761 157.315C246.076 157.648 245.434 157.952 244.756 158.255C241.94 159.599 239.002 160.673 235.982 161.463C235.684 161.571 235.367 161.618 235.05 161.601C234.734 161.584 234.424 161.504 234.139 161.364C234.274 161.14 234.455 160.946 234.668 160.794C234.882 160.642 235.125 160.535 235.382 160.48C239.397 159.304 242.989 157.245 246.598 155.199C247.146 154.89 247.226 154.607 246.861 154.146C246.495 153.686 246.53 152.911 245.57 153.428C241.346 155.711 236.789 157.212 232.317 158.925C231.778 159.166 231.174 159.218 230.602 159.074C230.749 158.794 230.955 158.549 231.207 158.357C231.458 158.165 231.749 158.031 232.058 157.963C236.351 156.302 240.475 154.234 244.373 151.787C244.674 151.595 245.382 151.506 244.86 150.909C244.455 150.443 244.39 149.353 243.274 149.94C242.404 150.392 241.512 150.799 240.6 151.161C239.958 151.421 238.987 151.787 238.678 151.149C238.368 150.512 239.237 149.964 239.837 149.571C240.551 149.103 241.294 148.666 242.009 148.197C242.175 148.093 242.52 147.955 242.381 147.743C242.07 147.219 241.7 146.733 241.277 146.294C241.004 146.017 240.714 146.36 240.438 146.5C236.042 148.535 231.729 150.763 227.163 152.416C226.52 152.747 225.773 152.817 225.079 152.612C225.502 152.07 226.081 151.671 226.739 151.47C228.989 150.653 231.153 149.616 233.201 148.377C235.146 147.095 237.125 145.858 239.099 144.617C239.497 144.372 239.823 144.192 239.415 143.652C239.086 143.213 238.907 142.798 238.216 143.206C237.061 143.894 235.861 144.519 234.64 145.091C234.03 145.377 233.127 145.584 232.808 144.947C232.551 144.442 233.297 143.901 233.81 143.571C234.873 142.843 235.974 142.17 237.107 141.556C238.15 141.026 237.47 140.523 237.233 139.971C236.896 139.159 236.496 139.778 236.131 139.962C232.084 142.288 227.877 144.328 223.543 146.066C223.006 146.3 222.415 146.384 221.833 146.308C221.284 146.225 221.175 146.019 221.49 145.536C221.905 145.009 222.468 144.618 223.107 144.414C227.547 142.763 231.471 140.19 235.354 137.547C236.27 136.931 235.53 136.414 235.353 135.921C235.113 135.242 234.684 135.82 234.419 135.969C231.119 137.66 227.833 139.389 224.545 141.108C224.08 141.4 223.553 141.579 223.006 141.633C222.863 141.632 222.661 141.628 222.583 141.537C222.438 141.365 222.608 141.2 222.712 141.053C223.091 140.603 223.57 140.25 224.112 140.021C227.372 138.31 230.513 136.384 233.515 134.255C234.751 133.401 234.784 133.186 234.107 131.784C231.977 133.129 229.75 134.296 227.541 135.496C226.954 135.82 226.038 136.239 225.715 135.716C225.392 135.192 226.218 134.654 226.755 134.282C228.66 132.984 230.43 131.522 232.194 130.046C232.871 129.602 233.462 129.04 233.939 128.385L232.874 128.156C232.043 127.958 231.283 127.826 230.96 128.964C230.741 129.373 230.397 129.702 229.978 129.901C227.452 131.619 224.621 132.748 221.869 134.021C221.621 134.144 221.347 134.208 221.07 134.207C220.793 134.207 220.519 134.141 220.272 134.016C223.335 132.174 226.223 130.056 228.901 127.688C228.514 127.413 228.05 127.267 227.575 127.271C227.101 127.275 226.64 127.43 226.259 127.712C223.683 129.474 220.952 131.001 218.102 132.274C217.654 132.549 217.119 132.649 216.601 132.555C217.376 130.724 219.311 130.165 220.47 128.793C221.63 127.421 223.471 126.66 225.147 125.542C224.604 125.418 224.384 124.738 223.863 125.088C222.396 126.093 220.652 126.584 219.18 127.584C218.92 127.747 218.63 127.856 218.327 127.904C217.921 127.973 217.34 128.158 217.151 127.745C216.962 127.331 217.419 126.937 217.775 126.71C218.862 125.962 219.848 125.077 220.71 124.077C221.104 123.654 221.598 123.337 222.146 123.155C221.726 122.444 221.374 121.825 220.455 122.663C220.149 122.878 219.801 123.027 219.433 123.099C219.065 123.172 218.687 123.167 218.321 123.084C217.437 122.995 217.116 122.589 217.309 121.72C217.412 121.237 217.638 120.789 217.967 120.421C218.295 120.052 218.714 119.776 219.182 119.619C219.399 119.529 219.823 119.59 219.589 119.122C219.417 118.775 219.187 118.882 218.894 118.999C217.496 119.552 216.162 120.257 214.918 121.1C213.453 122.17 211.822 122.991 210.09 123.532C209.758 123.657 209.402 123.707 209.048 123.678C208.694 123.649 208.351 123.542 208.044 123.365C208.154 123.124 208.314 122.91 208.513 122.736C208.713 122.562 208.947 122.433 209.201 122.356C210.481 121.762 211.658 120.964 212.684 119.994C214.155 118.635 215.637 117.295 217.576 116.633C217.879 116.524 218.15 116.478 217.996 116.021C217.842 115.565 217.584 115.684 217.294 115.786C216.328 115.972 215.401 116.321 214.552 116.818C213.732 117.234 212.868 117.556 211.975 117.779C211.689 117.866 211.275 117.902 211.113 117.653C210.95 117.403 211.116 117.004 211.299 116.716C211.388 116.552 211.507 116.407 211.649 116.288C212.421 115.637 213.114 114.897 213.713 114.085C214.204 113.486 215.191 113.241 215.405 112.621C215.618 112.001 214.862 111.176 214.877 110.349C214.899 110.322 214.797 110.283 214.743 110.185C214.388 110.52 214.04 110.869 213.668 111.181C212.854 111.925 211.934 112.543 210.938 113.017C210.71 113.108 210.457 113.117 210.223 113.041C209.989 112.965 209.789 112.81 209.658 112.602C209.394 112.27 209.923 112.016 210.149 111.763C210.321 111.596 210.517 111.455 210.731 111.347C212.017 110.61 213.079 109.539 213.806 108.248C214.448 107.197 215.301 106.29 216.311 105.584C216.55 105.39 216.844 105.276 217.151 105.26C217.459 105.244 217.764 105.326 218.022 105.494C218.434 105.832 217.9 106.287 217.693 106.671C217.186 107.943 217.176 109.359 217.663 110.64C217.853 110.527 217.827 110.319 217.86 110.149C218.358 107.485 219.434 104.964 221.011 102.763C222.693 100.415 224.503 98.1615 226.433 96.0131C227.052 95.3883 227.442 94.5728 227.54 93.6984C227.638 92.824 227.438 91.9417 226.973 91.1939C226.548 90.3463 226.152 89.4764 225.798 88.5974C225.512 87.8541 225.385 86.8299 226.116 86.5172C226.846 86.2045 227.214 87.1852 227.535 87.7875C228.185 89.0255 228.789 90.2976 229.431 91.6003C229.683 91.2389 229.848 90.8241 229.914 90.3882C230.783 87.6614 232.173 85.1299 234.007 82.9342C234.186 82.6479 234.429 82.4069 234.716 82.2302C235.004 82.0536 235.328 81.946 235.665 81.916C235.678 82.3974 235.555 82.8726 235.311 83.2873C234.332 85.2638 233.458 87.2902 232.691 89.358C231.39 93.1506 229.412 96.6748 226.853 99.76C225.434 101.384 224.21 103.15 222.96 104.895C222.665 105.208 222.458 105.592 222.359 106.01C222.251 106.639 221.988 107.231 221.593 107.732C220.864 109.037 220.137 110.371 220.133 111.895C220.068 116.147 223.805 121.611 227.783 123.155C229.859 123.962 231.944 124.563 233.991 123.069C234.172 122.947 234.387 122.883 234.606 122.885C235.647 122.925 236.477 122.382 237.353 121.947C239.249 120.941 241.088 119.833 242.863 118.628C247.691 115.509 252.123 111.923 255.424 107.151C258.94 102.083 262.32 96.9197 265.905 91.8987C268.324 88.5208 270.571 85.0025 273.027 81.7093C274.113 80.1909 274.837 78.4441 275.144 76.6021C275.204 76.321 275.31 76.0059 275.196 75.8403C274.11 77.1658 272.899 78.425 271.912 79.8489C269.18 83.9259 266.455 88.017 263.633 92.0292C263.259 92.5623 262.613 93.417 262.099 93.05C261.495 92.6084 261.934 91.7003 262.368 91.0729C263.011 90.1349 263.681 89.2189 264.303 88.2634C266.187 85.341 267.867 82.252 269.911 79.3974C271.122 77.7107 272.516 76.2173 273.629 74.4764C275.03 72.3287 275.747 70.0667 274.783 67.6067C273.317 63.8172 270.684 60.5902 267.265 58.3927C265.725 57.3862 264.003 56.6924 262.196 56.3511C260.39 56.0097 258.534 56.0274 256.735 56.4032C256.398 56.46 256.055 56.4789 255.714 56.4596C255.136 56.433 255.138 56.1577 255.433 55.7651C255.832 55.2503 256.396 54.8892 257.031 54.7429C259.449 54.0373 261.964 53.7166 264.484 53.7925C265.155 53.7614 265.82 53.9301 266.395 54.2774C269.008 56.0634 271.529 57.9797 273.949 60.019C275.82 61.6232 277.761 63.1419 278.691 65.6101C279.519 64.5999 279.915 63.6028 279.343 62.4014C279.043 61.7627 278.761 61.1123 278.518 60.4484C278.23 59.7038 277.7 59.0775 277.013 58.6706C275.109 57.4234 273.27 56.0864 271.352 54.8552C268.439 52.84 264.897 51.9431 261.379 52.3295C259.085 52.5421 256.812 52.9451 254.585 53.5343C253.278 53.8797 252.021 54.3933 250.846 55.0622C244.242 59.0958 238.28 64.0951 233.157 69.8941C231.399 71.8656 229.668 73.8591 227.914 75.8253C225.153 78.9225 221.977 81.6085 219.265 84.7549C214.713 90.0382 210.36 95.4837 205.62 100.604C204.812 101.311 204.094 102.115 203.481 102.996C202.694 104.459 201.471 105.449 200.334 106.554C199.812 107.041 199.187 107.406 198.505 107.62C197.823 107.834 197.102 107.893 196.394 107.792C195.198 107.687 194.031 107.364 192.951 106.839C190.231 105.445 187.862 103.452 186.023 101.011C183.661 97.8889 182.034 94.2751 181.263 90.4393C180.492 87.012 179.885 83.5046 179.165 80.0477C177.729 73.2268 175.582 66.7069 171.304 61.0503C169.968 59.2854 168.536 57.6035 167.076 55.9342C165.047 53.6283 163.085 51.2617 160.558 49.442C156.073 46.2998 151.161 43.8184 145.971 42.0741C141.015 40.3365 136.003 40.5354 131.012 41.9754C129.707 42.345 128.497 42.9885 127.461 43.8631C125.463 45.5487 122.803 49.5499 128.274 54.7203C130.581 56.9752 132.718 59.3973 134.667 61.9668C138.546 66.9306 142.488 71.8487 145.386 77.4741C147.465 81.49 148.798 85.7709 150.217 90.0238C153.26 99.1529 155.449 108.494 156.035 118.111C156.369 123.163 156.635 128.168 157.264 133.167C157.604 136.526 158.469 139.811 159.827 142.904C163.734 151.383 167.635 159.858 171.246 168.479C174.459 176.166 177.166 184.046 180.101 191.81C181.768 196.328 182.209 201.075 180.461 205.797C179.551 208.435 178.496 211.021 177.301 213.543C175.164 217.621 172.759 221.552 170.102 225.312C168.638 227.471 166.868 229.424 165.647 231.755C165.549 231.968 165.398 232.152 165.209 232.29C164.47 232.711 164.717 233.164 165.149 233.598C165.754 234.192 165.853 233.415 166.06 233.184C168.699 230.29 170.225 226.636 172.599 223.553C174.265 221.389 175.718 219.069 177.282 216.832C177.733 216.183 178.488 215.426 179.135 215.848C179.781 216.271 179.358 217.246 178.995 217.941C177.956 219.86 176.682 221.643 175.203 223.247C174.221 224.225 173.341 225.3 172.576 226.454C170.875 229.485 168.926 232.369 166.747 235.077C166.528 235.344 166.472 235.521 166.675 235.786C167.868 237.344 168.862 239.123 170.295 240.422C173.381 243.247 176.632 245.887 180.031 248.326C185.461 252.194 191.063 255.819 196.737 259.333C206.034 265.055 215.499 270.451 225.691 274.469C226.279 274.701 226.564 274.702 226.896 274.09C227.199 273.537 227.608 273.05 228.099 272.654C231.037 270.091 233.72 267.248 236.108 264.166C236.459 263.738 236.809 263.311 237.159 262.883C237.417 262.568 237.816 262.234 238.17 262.523C238.523 262.813 238.279 263.318 237.991 263.583C237.015 264.489 236.485 265.716 235.626 266.709C233.273 269.303 231.138 272.085 229.241 275.028C229.087 275.215 228.434 275.456 229.033 275.751C229.451 275.951 229.972 276.681 230.507 275.699C231.445 274.079 232.482 272.518 233.611 271.025C233.923 270.565 234.35 270.194 234.85 269.95C235.334 269.731 235.97 269.555 236.309 269.851C236.649 270.146 236.279 270.718 236.094 271.13C235.965 271.442 235.793 271.733 235.581 271.996C234.705 273.076 233.926 274.231 233.254 275.448C232.207 277.217 232.184 277.18 234.17 277.825C234.256 277.871 234.351 277.899 234.449 277.906C234.547 277.913 234.645 277.899 234.736 277.865C234.828 277.832 234.912 277.779 234.982 277.711C235.052 277.642 235.106 277.56 235.142 277.469C235.861 276.405 236.617 275.373 237.364 274.341L244.727 264.108C245.34 263.262 245.907 262.395 246.498 261.531C248.1 259.127 249.874 256.844 251.809 254.699C252.706 253.735 253.526 252.701 254.261 251.608C254.388 251.453 254.699 251.073 254.299 251.058C253.583 251.026 252.791 250.716 252.16 251.485C251.276 252.663 250.339 253.807 249.438 254.972C246.697 258.514 243.955 262.091 241.206 265.609C240.665 266.43 239.968 267.136 239.154 267.689C238.714 267.953 238.13 268.251 237.723 267.776C237.317 267.3 237.83 266.925 238.03 266.527C238.144 266.344 238.281 266.177 238.438 266.03C241.628 262.659 244.604 259.104 247.494 255.478C248.496 254.227 249.397 252.898 250.186 251.503C249.881 251.253 249.384 251.489 249.328 251.13C249.273 250.772 249.662 250.591 249.937 250.387C250.214 250.19 250.531 250.053 250.865 249.986C251.141 249.959 251.396 249.825 251.574 249.612C252.076 248.88 252.598 248.155 253.105 247.427C253.24 247.261 253.376 247.096 253.109 246.886C252.964 246.774 252.798 246.692 252.62 246.644C252.443 246.597 252.258 246.585 252.076 246.61C251.894 246.635 251.719 246.695 251.561 246.789C251.403 246.882 251.265 247.005 251.156 247.152C249.628 249.116 248.402 251.3 246.741 253.164C246.535 253.452 246.272 253.695 245.968 253.878C245.664 254.061 245.327 254.18 244.975 254.227C244.979 253.959 245.038 253.695 245.15 253.451C245.262 253.207 245.424 252.99 245.624 252.812C247.309 250.941 248.286 248.624 249.646 246.549C249.871 246.198 249.835 246.034 249.427 245.888C249.157 245.792 248.729 245.647 248.768 245.348C248.807 245.05 249.3 245.016 249.61 244.922C249.92 244.827 250.493 245.1 250.772 244.596C251.05 244.092 251.464 243.511 251.808 242.971C251.922 242.832 252.031 242.698 251.829 242.497C251.701 242.366 251.545 242.265 251.373 242.201C251.201 242.137 251.017 242.111 250.834 242.126C250.652 242.14 250.474 242.195 250.315 242.286C250.156 242.377 250.019 242.501 249.913 242.651C249.738 242.865 249.616 243.113 249.457 243.34C248.364 244.892 247.536 246.634 246.196 248.019C245.999 248.283 245.75 248.504 245.463 248.665C245.176 248.827 244.859 248.928 244.531 248.96C244.501 248.846 244.504 248.727 244.541 248.616C244.578 248.505 244.646 248.407 244.738 248.335C246.475 246.488 247.312 244.101 248.588 241.976C248.715 241.821 248.93 241.667 248.822 241.417C248.606 240.937 246.851 240.776 246.555 241.213C246.098 241.902 245.679 242.621 245.217 243.305C245.024 243.641 244.747 243.92 244.414 244.117C244.081 244.313 243.702 244.42 243.314 244.426C243.271 244.022 243.386 243.616 243.633 243.294C243.966 242.736 244.335 242.208 244.653 241.646C245.346 240.428 245.311 240.471 244.094 239.893C243.65 239.681 243.437 239.81 243.162 240.113C242.559 240.762 241.957 241.42 241.309 242.025C240.714 242.664 239.925 243.091 239.062 243.239C239.087 242.784 239.223 242.342 239.459 241.953C239.695 241.563 240.024 241.238 240.416 241.007C242.271 239.65 243.192 237.619 244.576 235.733C243.382 235.541 242.322 234.869 241.331 235.959C241.092 236.152 240.81 236.286 240.51 236.35C239.991 236.524 239.585 236.485 239.903 235.79C240.129 235.297 240.018 235.072 239.516 234.92C239.392 234.9 239.278 234.841 239.19 234.752C239.102 234.662 239.046 234.546 239.029 234.422C239.386 234.119 239.84 233.952 240.309 233.952C241.155 234.011 241.475 233.523 241.73 232.839C242.092 231.7 242.591 230.609 243.218 229.592C243.64 228.991 244.273 228.196 244.965 228.629C245.657 229.062 245.179 229.93 244.843 230.557C244.508 231.185 244.067 231.877 243.687 232.548C242.927 233.891 242.937 233.846 244.486 234.096C244.633 234.154 244.791 234.181 244.95 234.174C245.109 234.168 245.264 234.128 245.406 234.057C245.548 233.987 245.674 233.887 245.775 233.765C245.876 233.643 245.95 233.501 245.993 233.348C246.249 232.652 246.664 232.026 247.205 231.519C247.553 231.214 248.053 230.811 248.414 231.026C248.775 231.241 248.603 231.887 248.419 232.298C248.043 233.063 247.595 233.785 247.172 234.519C247.359 234.674 247.576 234.79 247.81 234.859C248.043 234.928 248.288 234.949 248.53 234.92C248.771 234.892 249.004 234.815 249.215 234.694C249.426 234.573 249.61 234.41 249.756 234.216C250.237 233.693 250.827 233.283 251.484 233.014C252.142 232.746 252.851 232.625 253.561 232.661C254.021 232.69 254.635 232.836 254.699 233.281C254.764 233.727 254.129 233.868 253.744 233.945C252.543 234.227 251.462 234.878 250.652 235.808C251.772 236.046 252.636 236.87 253.81 236.519C253.867 236.491 253.93 236.481 253.993 236.488C254.056 236.496 254.115 236.521 254.164 236.561C254.213 236.601 254.25 236.654 254.269 236.715C254.289 236.775 254.291 236.839 254.276 236.9C254.273 236.992 254.305 237.082 254.364 237.152C254.424 237.223 254.508 237.268 254.599 237.281C255.964 237.833 257.378 238.253 258.823 238.535ZM307.58 85.3908C308.485 84.1321 308.605 83.8993 308.45 83.2365C308.159 81.3457 307.395 79.5584 306.229 78.0407C305.149 76.7811 304.025 75.5652 302.963 74.294C300.692 71.5402 298.139 69.2612 294.444 68.5738C293.593 68.3731 292.71 68.3435 291.848 68.4867C290.986 68.6298 290.161 68.9428 289.421 69.4076C288.572 69.9531 287.816 70.6467 286.965 71.1825C286.115 71.7183 285.13 72.4836 284.008 72.4221C283.844 72.3864 283.674 72.4029 283.52 72.4691C283.366 72.5354 283.237 72.6481 283.151 72.7916C278.541 79.1615 273.43 85.1385 268.985 91.6347C265.563 96.6199 261.866 101.416 258.47 106.413C255.702 110.478 252.428 114.174 248.727 117.411C247.326 118.59 246.278 120.134 245.699 121.871C245.511 122.44 245.626 123.053 245.404 123.586C244.068 126.823 245.445 129.871 246.104 132.921C246.184 133.121 246.293 133.307 246.43 133.474C248.578 136.765 251.689 139.314 255.339 140.772C255.679 140.915 256.046 140.981 256.415 140.966C262.104 140.946 267.276 138.957 272.186 136.415C276.283 134.297 279.49 130.939 282.419 127.408C285.347 123.876 288.127 120.178 290.978 116.556C293.906 112.923 297.016 109.44 300.296 106.121C300.563 105.795 301.094 105.551 301.093 105.148C301.009 103.874 301.552 102.666 301.474 101.406C301.451 100.762 301.555 100.121 301.783 99.5186C302.01 98.9166 302.356 98.3662 302.799 97.8996C303.312 97.4501 303.677 96.8559 303.847 96.1947C303.994 94.5292 304.499 92.9513 304.762 91.3089C304.846 90.8583 304.782 90.3924 304.58 89.9806C301.546 83.779 297.701 78.2272 291.956 74.1991C291.558 73.9564 291.209 73.6407 290.929 73.2684C290.605 72.7796 290.224 72.2176 290.541 71.6557C290.858 71.0938 291.469 71.1122 292.043 71.0999C292.376 71.1497 292.714 71.1594 293.049 71.1286C293.606 71.0071 294.183 71.0019 294.743 71.1133C295.303 71.2247 295.834 71.4503 296.303 71.776C299.805 73.9213 302.743 76.8735 304.871 80.3854C305.792 82.0242 306.643 83.6945 307.58 85.3908ZM150.598 247.526C150.367 247.721 150.344 247.738 150.717 248.276C152.411 250.61 154.356 252.752 156.517 254.662C159.536 257.421 162.582 260.157 165.688 262.809C170.019 266.5 174.254 270.308 179.094 273.345C185.445 277.333 191.897 281.154 198.356 284.944C208.035 290.671 218.189 295.552 228.704 299.535C233.87 301.454 239.168 302.882 244.454 304.337C244.676 304.393 245.133 304.732 245.129 304.157C245.124 303.072 245.708 302.238 246.159 301.339C248.25 297.104 250.441 292.923 251.808 288.371C251.911 288.027 252.199 287.718 251.556 287.477C246.874 285.722 242.241 283.82 237.527 282.147C224.336 277.507 211.698 271.417 199.848 263.989C195.095 260.988 190.341 257.988 185.664 254.862C181.729 252.227 177.787 249.614 174.067 246.673C171.582 244.709 169.224 242.59 167.008 240.328C165.059 238.338 162.965 236.525 161.354 234.276C160.977 233.753 160.854 233.991 160.606 234.36C159.294 236.322 158.025 238.328 156.613 240.217C154.745 242.764 152.732 245.2 150.582 247.513L150.598 247.526ZM324.246 110.513C324.43 110.288 324.373 110.117 324.395 109.938C324.587 107.791 323.292 106.238 322.243 104.602C321.613 103.537 320.674 102.687 319.551 102.165C318.352 101.52 317.101 100.976 315.811 100.539C314.893 100.305 313.826 99.904 312.861 100.382C309.753 101.927 306.8 103.642 304.373 106.255C301.455 109.402 298.202 112.248 295.381 115.483C291.141 120.343 286.997 125.281 282.982 130.335C279.316 134.941 275.036 138.768 269.423 140.824C268.22 141.267 267.608 141.73 267.694 143.132C267.84 145.574 267.966 147.999 269.263 150.161C271.142 153.185 273.729 155.706 276.801 157.506C278.787 158.74 281.092 158.886 283.314 159.385C286.485 160.08 289.341 159.312 292.048 157.733C294.868 156.104 297.354 153.987 299.989 152.092C304.287 149.03 308.235 145.521 312.6 142.541C315.107 140.825 317.876 139.53 320.012 137.207C321.899 135.236 323.631 133.122 325.192 130.884C325.86 129.925 326.382 128.871 326.741 127.759C327.197 126.221 327.814 124.735 328.582 123.327C329.267 122.226 329.601 120.942 329.54 119.646C328.918 120.138 328.228 120.538 327.492 120.835C327.399 120.837 327.307 120.858 327.222 120.897C327.138 120.935 327.061 120.99 326.999 121.059C326.936 121.127 326.887 121.208 326.856 121.296C326.826 121.384 326.813 121.477 326.819 121.57C326.439 123.813 326.034 126.045 325.658 128.283C325.62 128.697 325.487 129.097 325.27 129.452C325.052 129.806 324.756 130.106 324.404 130.328C324.177 130.484 323.985 130.685 323.839 130.919C323.576 131.239 323.244 131.646 322.866 131.408C322.488 131.17 322.505 130.549 322.778 130.237C323.516 129.413 323.44 128.413 323.477 127.451C323.556 125.247 323.878 123.019 323.325 120.843C322.247 116.984 320.323 113.412 317.692 110.387C316.507 109.011 315.198 107.746 313.78 106.61C313.027 106.111 312.502 105.334 312.321 104.45C312.265 103.993 312.368 103.595 312.896 103.617C313.65 103.639 314.4 103.509 315.103 103.237C315.311 103.17 315.53 103.148 315.746 103.171C315.963 103.195 316.172 103.264 316.36 103.374C317.563 104.091 318.86 104.528 319.826 105.587C321.386 107.149 322.862 108.793 324.246 110.513ZM295.666 158.286C295.591 158.337 295.531 158.407 295.491 158.488C295.451 158.569 295.432 158.66 295.438 158.751C295.197 160.517 295.201 162.309 295.451 164.075C295.517 164.723 295.774 165.337 296.188 165.84C297.68 167.475 299.33 168.958 301.113 170.269C303.291 171.848 305.854 172.706 308.285 173.812C312.622 175.803 316.738 175.147 320.681 172.803C323.945 170.86 327.133 168.782 330.386 166.82C332.252 165.635 334.279 164.724 336.405 164.114C337.571 163.783 338.95 163.466 339.58 162.249C340.772 159.93 341.877 157.566 342.924 155.164C343.653 153.663 344.004 152.005 343.944 150.336C343.802 147.51 343.237 144.721 342.269 142.06C340.646 137.931 338.153 134.198 334.96 131.116C333.74 129.929 333.073 129.936 331.853 131.107C329.773 133.101 327.776 135.189 325.509 136.985C321.491 140.009 317.31 142.81 312.982 145.373C309.153 147.764 305.724 150.716 301.992 153.241C299.747 154.75 297.632 156.444 295.668 158.305L295.666 158.286ZM348.602 161.709C348.036 162.138 330.325 188.322 329.884 188.926C327.896 191.692 325.945 194.488 323.919 197.223C320.209 202.222 316.561 207.209 312.555 211.957C309.383 215.709 299.267 227.25 297.218 229.118C287.63 238.233 275.124 245.744 273.886 246.579C269.237 249.72 261.255 255.444 255.05 263.99C251.076 269.452 249.158 272.275 246.708 277.941C246.164 278.79 245.998 282.084 246.603 282.088C246.78 282.09 246.971 281.148 247.161 280.643C247.213 280.579 247.275 280.504 247.294 280.404C248.98 277.167 250.63 273.919 252.46 270.756C255.459 265.601 259.174 260.898 263.493 256.786C266.843 253.723 270.378 250.868 274.076 248.236C277.285 245.826 280.289 243.143 283.891 241.279C285.866 240.358 287.753 239.258 289.527 237.992C293.895 234.604 297.499 230.446 301.163 226.356C305.469 221.514 309.727 216.634 314.01 211.765C321.283 203.557 327.909 194.797 333.828 185.565C337.911 179.085 342.079 172.675 346.198 166.162C347.089 164.703 348.117 163.393 348.613 161.718L348.602 161.709ZM149.851 254.587C149.844 254.885 149.9 255.181 150.015 255.457C150.13 255.732 150.301 255.981 150.517 256.187C151.171 256.918 151.851 257.627 152.441 258.414C155.685 262.825 159.554 266.741 163.926 270.038C166.539 271.982 169.255 273.778 171.923 275.643C175.369 278.055 179.141 279.939 182.633 282.228C184.116 283.098 185.643 283.892 187.206 284.608C189.462 285.786 191.705 286.99 193.971 288.167C194.422 288.403 195.185 288.706 195.406 288.316C195.689 287.806 194.902 287.555 194.524 287.209C194.459 287.142 194.387 287.084 194.309 287.033C191.53 285.435 188.615 284.155 185.952 282.25C183.958 280.84 181.679 279.821 179.548 278.611C175.834 276.462 172 274.5 168.778 271.575C166.105 269.17 163.21 267.013 160.59 264.554C157.643 261.818 154.649 259.116 151.906 256.163C151.324 255.515 150.627 254.981 149.851 254.587ZM263.751 245.931C264.638 246.881 264.586 247.294 263.659 247.955C263.233 248.261 262.726 248.436 262.201 248.457C261.62 248.49 261.035 248.493 260.454 248.526C259.872 248.559 258.393 249.589 258.526 249.885C258.999 250.925 258.09 250.788 257.65 250.954C257.326 251.036 257.027 251.196 256.778 251.419C254.576 253.733 252.613 256.264 250.92 258.973C248.992 262.418 246.882 265.758 244.601 268.98C243.927 269.901 242.961 270.611 242.52 271.651C241.667 273.395 240.581 275.015 239.292 276.465C238.828 277.032 238.359 277.604 237.949 278.214C237.796 278.401 237.344 278.799 237.918 278.984C238.365 279.126 239.019 279.823 239.343 279.035C240.559 276.458 242.444 274.376 243.927 272.009C245.409 269.642 247.022 267.587 248.669 265.444C252.514 260.457 256.75 255.799 260.906 251.076C261.806 250.027 262.842 249.104 263.987 248.33C265.311 247.468 266.601 246.559 268.07 245.53L263.751 245.931ZM184.76 288.249C184.725 288.084 184.674 287.923 184.609 287.768C184.032 286.924 183.225 286.264 182.285 285.864C177.231 283.198 172.416 280.102 167.892 276.61C162.792 272.602 157.561 268.754 153.104 263.995C152.913 263.753 152.668 263.56 152.388 263.431C152.109 263.301 151.803 263.239 151.496 263.249C151.479 263.545 151.523 263.842 151.626 264.121C151.728 264.4 151.886 264.655 152.091 264.871C153.31 266.333 154.603 267.733 155.966 269.064C161.543 274.749 167.992 279.273 174.793 283.335C177.663 285.052 180.913 286.053 183.698 287.951C184.001 288.182 184.381 288.289 184.76 288.249ZM172.48 292.132C172.193 291.719 171.796 291.393 171.334 291.193C167.968 289.546 164.769 287.577 161.781 285.314C156.171 281.372 150.945 276.908 146.174 271.984C145.75 271.533 145.185 271.24 144.573 271.154C143.879 271.05 143.712 271.342 143.812 271.995C144.056 272.827 144.582 273.548 145.299 274.035C150.684 278.988 156.506 283.443 162.693 287.347C165.267 288.956 167.771 290.694 170.568 291.932C170.854 292.1 171.173 292.205 171.503 292.24C171.833 292.274 172.166 292.237 172.48 292.132ZM137.631 278.24C136.839 277.591 135.727 277.287 135.55 277.678C135.2 278.347 135.484 278.982 135.905 279.55C135.936 279.604 135.972 279.655 136.014 279.701C136.988 280.845 138.051 281.91 139.193 282.886C141.291 284.498 143.366 286.126 145.481 287.716C146.974 288.841 148.503 289.924 150.049 290.985C150.582 291.351 151.413 291.942 151.83 291.39C152.189 290.952 151.326 290.334 150.829 289.936C147.757 287.526 144.721 285.084 141.815 282.471C140.332 281.15 138.935 279.737 137.631 278.24ZM151.447 286.101C152.45 286.918 153.502 287.673 154.597 288.361C156.453 289.563 158.437 290.556 160.511 291.321C160.955 291.479 161.63 291.692 161.837 291.21C162.044 290.728 161.447 290.364 161.024 290.116C160.309 289.7 159.548 289.362 158.829 288.951C155.386 286.861 152.081 284.551 148.936 282.035C148.513 281.688 147.839 281.19 147.528 281.569C147.217 281.948 147.737 282.57 148.124 282.95C149.192 284.004 150.329 285.042 151.442 286.097L151.447 286.101ZM209.55 349.903C209.728 350.384 210.071 350.785 210.519 351.036C215.539 354.023 221.021 356.153 226.739 357.339C227.284 357.468 227.857 357.39 228.348 357.121C228.781 356.877 228.895 356.596 228.453 356.207C227.909 355.804 227.263 355.559 226.589 355.501C220.995 354.411 215.53 352.935 210.516 350.122C210.234 349.928 209.888 349.849 209.55 349.903ZM166.641 283.74C166.527 283.254 166.249 282.822 165.855 282.515C162.454 279.503 159.048 276.492 155.637 273.484C155.102 273.045 154.325 272.409 153.9 272.873C153.475 273.338 154.003 274.19 154.531 274.703C155.378 275.504 156.256 276.277 157.076 277.056C159.564 279.415 162.453 281.229 165.226 283.206C165.614 283.555 166.12 283.746 166.641 283.74ZM187.193 292.859C186.896 292.616 186.561 292.423 186.202 292.288C182.152 290.677 178.207 288.814 174.389 286.711C173.861 286.387 173.251 286.225 172.632 286.245C172.065 286.272 171.938 286.481 172.181 286.992C172.568 287.626 173.159 288.111 173.857 288.365C177.717 290.348 181.858 291.704 185.828 293.411C186.145 293.531 186.474 293.612 186.81 293.653C187.079 293.686 187.443 293.743 187.575 293.485C187.706 293.226 187.304 293.04 187.193 292.859ZM137.611 270.434C137.113 270.179 136.67 269.726 136.275 270.001C135.88 270.276 136.011 270.901 136.166 271.368C136.28 271.684 136.439 271.983 136.638 272.255C138.614 274.998 140.71 277.627 143.779 279.265C144.319 279.556 145.029 280.076 145.413 279.586C145.728 279.201 145.035 278.606 144.597 278.212C142.796 276.684 141.153 274.979 139.694 273.123C139.006 272.194 138.266 271.284 137.611 270.434ZM234.553 306.801C234.866 307.269 235.312 307.634 235.833 307.849C240.676 309.834 245.585 311.551 250.914 311.522C251.344 311.549 251.772 311.463 252.157 311.272C252.788 310.896 252.79 310.576 252.233 310.164C251.736 309.846 251.139 309.723 250.557 309.818C245.519 310.157 240.784 308.806 236.152 307.012C235.665 306.74 235.093 306.665 234.553 306.801ZM137.103 287.185C137.95 287.909 138.842 288.578 139.775 289.187C140.227 289.432 140.881 289.771 141.175 289.324C141.469 288.878 140.825 288.484 140.445 288.173C139.374 287.296 138.299 286.522 137.308 285.603C134.705 283.319 132.011 281.147 130.203 278.067C129.994 277.686 129.656 277.39 129.25 277.233C128.8 277.061 128.61 277.173 128.662 277.644C128.726 278.261 128.982 278.843 129.394 279.307C131.784 282.103 134.359 284.735 137.103 287.185ZM349.911 143.489C350.619 141.471 350.582 139.265 349.809 137.269C348.927 135.208 347.885 133.219 346.691 131.321C346.013 130.14 344.913 129.909 343.634 129.593C343.847 130.028 344.117 130.433 344.437 130.796C346.218 132.183 346.799 134.258 347.603 136.203C348.554 138.571 349.326 141.006 349.911 143.489ZM332.544 107.012C332.575 105.653 332.569 104.47 331.891 103.441C330.469 101.293 328.667 99.4206 326.576 97.9159C326.067 97.4767 325.448 97.1857 324.786 97.0751C325.128 98.0339 325.23 99.0017 326.02 99.5773C327.614 100.822 329.029 102.282 330.224 103.915C330.975 104.887 331.502 106.024 332.544 107.012ZM249.335 314.739C248.868 314.374 248.287 314.186 247.695 314.208C244.673 314.019 241.639 313.954 238.749 312.775C238.514 312.7 238.265 312.676 238.02 312.704C237.854 312.711 237.582 312.747 237.529 312.856C237.419 313.078 237.646 313.237 237.803 313.384C238.171 313.66 238.581 313.876 239.017 314.021C241.966 315.303 245.159 315.391 248.273 315.905C248.583 315.931 248.895 315.88 249.182 315.757C249.843 315.539 249.888 315.201 249.335 314.739ZM333.349 119.354C336.67 117.484 336.869 114.03 335.685 111.041C335.624 112.399 335.23 113.72 334.538 114.889C333.624 116.266 333.531 117.744 333.365 119.367L333.349 119.354ZM246.237 319.427C244.416 318.846 242.507 318.588 240.598 318.666C240.27 318.683 239.768 318.772 239.758 319.21C239.748 319.649 240.136 319.841 240.481 319.955C242.229 320.523 244.058 320.796 245.894 320.763C246.076 320.738 246.251 320.682 246.414 320.599C247.061 320.343 247.002 320 246.253 319.44L246.237 319.427ZM230.185 351.177C229.854 350.879 229.441 350.687 229 350.626C227.883 350.416 226.774 350.186 225.651 350.017C225.061 349.918 224.201 349.722 224.02 350.369C223.839 351.016 224.582 351.464 225.213 351.677C226.47 352.1 227.782 352.338 229.107 352.384C229.444 352.376 229.775 352.293 230.075 352.141C230.607 351.907 230.725 351.566 230.185 351.177ZM125.282 287.308C125.274 287.534 125.32 287.758 125.414 287.964C125.507 288.169 125.648 288.35 125.823 288.493C127.632 290.546 129.663 292.393 131.879 293.999C132.403 294.375 133.237 294.897 133.586 294.406C133.934 293.914 133.129 293.335 132.584 292.996C130.842 291.907 129.21 290.651 127.712 289.245C126.964 288.552 126.379 287.672 125.282 287.308ZM248.343 304.298C248.515 304.644 247.315 305.028 248.219 305.322C250.607 306.099 253.054 306.737 255.59 305.957C255.795 305.892 256.179 305.992 256.117 305.62C256.118 305.449 256.064 305.282 255.961 305.145C255.859 305.007 255.714 304.907 255.549 304.86C255.464 304.844 255.365 304.888 255.277 304.887C253.1 304.836 250.862 305.209 248.804 304.051C248.587 303.944 248.487 304.077 248.343 304.298ZM222.262 345.383C222.349 345.554 222.471 345.705 222.619 345.827C222.768 345.948 222.94 346.038 223.124 346.089C225.915 347.126 228.86 347.681 231.835 347.732C232.317 347.734 233.074 347.694 233.057 347.224C233.039 346.754 232.272 346.795 231.807 346.816C229.015 346.871 226.234 346.436 223.59 345.533C223.177 345.333 222.709 345.281 222.262 345.383ZM263.088 162.483C263.108 161.814 263.01 161.146 262.797 160.512C262.721 160.101 262.536 160.021 262.148 160.212C261.589 160.522 260.989 160.763 260.436 161.078C260.175 161.222 259.676 161.242 259.807 161.715C259.938 162.432 260.169 163.127 260.495 163.78C260.527 163.806 260.681 163.816 260.746 163.78L263.088 162.483ZM261.058 155.327C260.828 154.986 260.668 155.159 260.525 155.247C259.883 155.615 259.219 156.044 258.558 156.414C258.213 156.605 258.216 156.831 258.309 157.165C258.822 158.8 258.807 158.807 260.267 157.975L261.377 157.33C261.54 157.24 261.748 157.161 261.688 156.95C261.471 156.353 261.221 155.773 261.058 155.327ZM250.198 155.675C250.18 155.785 250.119 155.913 250.158 156.008C250.358 156.583 250.449 157.291 250.85 157.664C251.155 157.914 251.66 157.319 252.095 157.139C252.456 156.979 252.804 156.789 253.133 156.57C253.365 156.429 253.841 156.372 253.587 155.95C253.274 155.426 253.152 154.45 252.503 154.544C251.708 154.651 250.983 155.263 250.198 155.675ZM259.528 152.903C259.574 152.771 259.673 152.638 259.641 152.558C259.44 151.981 259.086 151.469 258.618 151.077C258.2 150.735 257.944 151.32 257.609 151.456C257.501 151.513 257.402 151.585 257.316 151.672C256.017 152.591 256.007 152.636 256.859 153.977C256.976 154.162 257.06 154.409 257.333 154.25C258.079 153.798 258.806 153.348 259.528 152.903ZM243.977 239.217C245.697 239.912 246.446 238.846 247.097 237.593L247.153 237.523C247.299 237.214 247.683 236.876 247.071 236.652C246.669 236.51 246.236 235.968 245.801 236.629C245.162 237.508 244.542 238.385 243.977 239.217ZM263.51 165.276C260.979 166.248 260.861 166.446 261.511 168.569C263.773 167.555 263.918 167.334 263.493 165.298L263.51 165.276ZM220.831 349.239C220.022 348.702 219.08 348.403 218.11 348.377C217.879 348.375 217.576 348.341 217.46 348.603C217.343 348.865 217.557 349.085 217.707 349.261C218.061 349.668 218.505 349.987 219.003 350.192C219.502 350.397 220.041 350.483 220.578 350.443C220.892 350.441 221.339 350.442 221.429 350.059C221.518 349.677 221.151 349.546 220.831 349.239ZM250.207 239.596C250.986 238.644 250.986 238.644 249.9 238.103C249.708 238.008 249.513 237.92 249.33 237.815C249.018 237.639 248.813 237.758 248.638 238.016C248.219 238.523 247.888 239.097 247.658 239.714C247.658 239.714 247.701 239.749 247.728 239.771C248.179 240.257 249.793 240.132 250.207 239.596ZM209.997 341.712C209.296 341.154 208.442 340.822 207.548 340.76C207.038 340.771 206.885 340.967 207.149 341.443C207.387 341.835 207.703 342.175 208.076 342.442C208.449 342.709 208.872 342.898 209.32 342.998C209.775 343.13 210.386 343.192 210.598 342.803C210.809 342.414 210.268 342.059 209.997 341.712ZM248.43 151.958C248.28 152.523 248.796 152.963 249.025 153.481C249.119 153.683 250.809 152.996 251.11 152.509C251.507 151.861 250.769 151.516 250.529 151.033C250.425 150.778 249.018 151.349 248.441 151.966L248.43 151.958ZM199.933 290.774C200.448 291.892 203.316 293.492 204.633 293.391C204.262 292.337 201.305 290.683 199.933 290.774ZM274.086 241.813C272.162 242.469 269.92 241.973 268.046 243.474C268.929 243.363 269.825 243.432 270.681 243.676C270.766 243.746 270.97 243.618 271.1 243.547L274.086 241.813ZM352.422 149.467C351.516 151.512 350.16 153.321 349.346 155.406C350.092 154.659 350.66 153.802 351.423 153.078C352.561 152.082 352.315 150.755 352.471 149.462L352.422 149.467ZM263.575 170.232C261.425 171.196 261.192 171.568 261.652 173.257C263.741 172.235 263.603 172.524 263.575 170.232ZM248.308 147.901C247.933 147.54 247.154 147.661 246.693 148.257C246.232 148.853 246.856 149.489 247.176 149.698C247.756 150.083 248.258 149.36 248.649 148.993C249.309 148.471 248.297 148.276 248.322 147.885L248.308 147.901ZM255.509 244.503C255.963 244.124 255.846 243.885 255.257 243.795C254.961 243.741 254.669 243.617 254.372 243.553C254.076 243.489 252.814 244.473 252.838 244.869C252.843 245.016 252.954 245.044 253.085 245.071C253.502 245.235 253.96 245.268 254.396 245.163C254.833 245.059 255.226 244.822 255.523 244.486L255.509 244.503ZM256.787 248.229C255.359 247.46 254.674 247.783 253.934 249.527C255.287 249.885 256.164 249.317 256.805 248.207L256.787 248.229ZM246.283 145.536C246.31 145.22 246.257 144.903 246.128 144.613C245.999 144.323 245.799 144.071 245.546 143.879C245.091 143.506 244.568 144.167 244.356 144.458C243.903 145.087 244.631 145.576 244.981 145.934C245.434 146.386 245.757 145.588 246.283 145.536ZM260.61 242.885C262.07 243.517 263.517 243.935 265.123 242.607C263.486 243.034 262.01 241.995 260.619 242.874L260.61 242.885ZM148.254 258.557C148.114 258.443 147.97 258.324 147.809 258.237C147.648 258.15 147.291 257.875 147.068 258.05C146.844 258.224 147.032 258.574 147.134 258.809C147.297 259.188 147.536 259.528 147.838 259.809C148.139 260.09 148.496 260.305 148.885 260.44C149.309 260.6 149.465 260.442 149.314 260.015C149.099 259.442 148.733 258.938 148.254 258.557ZM231.476 312.042L231.6 312.143C232.06 312.52 233.478 312.449 233.61 312.004C233.823 311.285 232.937 311.559 232.693 311.19C232.569 311.054 232.407 310.959 232.229 310.916C231.852 310.786 231.379 310.631 231.131 311C230.883 311.368 231.271 311.757 231.476 312.042ZM239.986 132.428C239.583 132.537 239.221 132.763 238.945 133.076C238.285 133.652 238.824 134.316 239.098 134.702C239.373 135.088 239.786 134.506 240.112 134.327C240.438 134.147 240.313 132.75 239.994 132.417L239.986 132.428ZM251.947 240.048C251.369 240.754 251.369 240.754 252.198 241.031C252.431 241.124 252.672 241.195 252.917 241.245C253.45 241.315 253.563 240.773 253.898 240.539C253.931 240.52 253.96 240.495 253.982 240.464C254.005 240.434 254.02 240.399 254.028 240.362C254.035 240.324 254.035 240.286 254.026 240.249C254.017 240.212 254 240.178 253.977 240.148C253.851 240.007 253.698 239.892 253.527 239.81C253.357 239.729 253.171 239.682 252.982 239.673C252.793 239.663 252.605 239.692 252.427 239.756C252.249 239.821 252.086 239.92 251.947 240.048ZM140.761 267.397C140.391 267.183 139.888 266.682 139.591 267.055C139.197 267.536 139.535 268.161 140.013 268.562C140.393 268.873 140.98 269.238 141.286 268.81C141.592 268.381 141.166 267.809 140.761 267.397ZM126.613 281.861C126.605 282.167 126.661 282.473 126.778 282.757C126.896 283.041 127.071 283.297 127.293 283.509C127.515 283.722 127.779 283.885 128.068 283.989C128.358 284.094 128.665 284.136 128.971 284.114C128.783 283.58 128.472 283.097 128.062 282.705C127.652 282.314 127.155 282.024 126.613 281.861ZM255.634 241.817C257.25 242.498 257.858 242.488 258.47 241.774C255.94 240.854 256.318 240.905 255.65 241.831L255.634 241.817ZM255.773 149.47C255.948 149.256 256.246 149.089 255.843 148.893C255.44 148.697 254.844 148.432 254.332 148.227C254.111 148.135 253.796 148.225 253.895 148.476C254.061 149.03 254.358 149.537 254.76 149.953C255.162 150.282 255.397 149.537 255.773 149.47ZM260.701 245.45C258.869 244.53 258.305 244.542 257.535 245.536C258.582 245.59 259.555 245.834 260.701 245.45ZM243.251 140.882C242.85 140.366 242.532 140.668 242.317 140.93C241.82 141.416 242.334 141.837 242.607 142.061C243.014 142.492 243.387 141.949 243.615 141.716C244.004 141.284 243.283 141.149 243.251 140.882ZM241.162 137.447C240.877 137.15 240.63 137.332 240.505 137.507C240.106 137.993 240.631 138.378 240.808 138.774C240.986 139.169 241.256 138.828 241.376 138.703C241.879 138.177 241.115 137.864 241.162 137.447Z" fill="#634DBC"/>
<path d="M169.722 86.3432C169.757 88.7572 171.093 90.8611 171.154 93.3315C170.883 93.2384 170.635 93.086 170.429 92.8852C170.224 92.6844 170.066 92.4405 169.967 92.171C169.261 90.6675 168.691 89.1039 168.265 87.4989C168.159 87.0819 167.98 86.6229 168.157 86.232C168.558 85.3277 167.952 85.0632 167.375 84.6975C166.498 84.1845 165.4 83.9732 164.835 82.9381C165.816 82.5368 166.584 83.1294 167.532 83.4241C167.183 82.8044 166.932 82.1347 166.788 81.4388C166.415 80.1243 166.032 78.855 164.489 78.3682C164.202 78.2865 163.949 78.1143 163.768 77.8771C163.586 77.6399 163.486 77.3506 163.483 77.0523C163.581 76.4089 164.376 76.8464 164.923 76.5616C164.44 75.5233 163.951 74.4708 163.465 73.4378C163.316 73.1282 162.963 73.0893 162.695 72.9682C160.77 72.1567 158.797 71.4649 156.787 70.897C156.41 70.8215 156.056 70.6605 155.751 70.4264C155.447 70.1923 155.2 69.8914 155.03 69.5469C157.603 69.8683 159.932 70.7936 162.383 71.3284C162.177 70.6536 161.896 70.004 161.545 69.3915C161.282 68.8687 161.141 68.2924 161.136 67.7072C161.154 67.052 161.432 66.9852 161.935 67.2993C162.414 67.5858 162.808 67.9948 163.076 68.484C163.569 69.4329 164.144 70.359 164.542 71.3466C164.941 72.3342 165.592 72.5993 166.649 72.7507C166.096 71.6456 166.046 70.4075 164.794 69.8822C164.656 69.8054 164.549 69.6839 164.489 69.5378C164.43 69.3917 164.422 69.2299 164.468 69.0791C164.504 68.5128 164.321 67.9538 163.957 67.5177C162.02 64.4214 160.322 61.2525 157.862 58.5763C155.68 56.1944 153.245 54.0584 150.599 52.2066C150.049 51.8751 149.605 51.3938 149.32 50.8192C149.565 50.7364 149.827 50.7111 150.084 50.7454C150.342 50.7796 150.588 50.8726 150.804 51.0169C152.081 51.815 153.304 52.6975 154.464 53.6585C156.154 54.8727 157.883 56.0389 159.519 57.3173C161.189 58.6348 162.653 60.1928 163.865 61.9402C164.158 62.4274 164.551 62.8469 165.018 63.171C165.485 63.4952 166.016 63.7165 166.575 63.8205C166.741 63.6174 166.515 63.4677 166.419 63.3002C163.996 59.4518 160.835 56.1209 157.117 53.5003C152.426 50.0077 147.21 47.2839 141.664 45.4316C141.108 45.2476 140.604 44.9353 140.191 44.5202C139.864 44.1987 139.938 43.9998 140.359 43.8895C140.929 43.7606 141.523 43.7904 142.078 43.9757C148.444 45.7071 154.22 48.6168 159.903 51.9778C165.931 55.5408 169.498 61.0168 172.704 66.8232C174.126 69.3904 174.831 72.21 175.682 75.0153C177.697 81.6858 178.596 88.594 180.365 95.3035C181.084 97.7526 182.261 100.044 183.833 102.057C185.26 103.985 186.512 106.038 188.018 107.87C188.764 108.794 189.857 109.163 190.742 109.852C192.225 111.148 193.773 112.369 195.379 113.508C195.509 113.592 195.62 113.701 195.706 113.829C195.94 114.155 196.477 114.461 196.224 114.879C195.971 115.297 195.393 115.216 194.946 115.073C194.651 114.988 194.374 114.849 194.129 114.663C192.491 113.321 190.68 112.221 188.939 111.027C187.116 109.659 185.468 108.072 184.032 106.302C182.525 104.724 181.194 102.987 180.063 101.121C178.706 98.6606 176.958 96.3269 176.56 93.3837C176.372 92.0412 175.039 91.3962 174.186 90.4386C174.099 90.5455 174.046 90.6096 174.033 90.6256C175.234 94.8606 176.616 99.0385 178.944 102.804C180.725 105.463 182.847 107.877 185.257 109.984C186.655 111.456 188.222 112.758 189.926 113.863C190.438 114.159 190.837 114.615 191.063 115.161C191.347 115.831 191.096 116.082 190.436 116.058C189.921 116.059 189.415 115.922 188.971 115.662C184.889 113.297 181.361 110.084 178.625 106.24C178.233 105.727 177.882 105.183 177.578 104.614C175.156 99.4771 172.671 94.3417 171.5 88.7378C171.29 87.6726 170.182 87.256 169.722 86.3432ZM170.828 85.6594C170.439 83.7422 170.604 81.564 168.01 80.7434C168.305 81.6383 168.277 82.6078 167.931 83.4831C167.789 83.7772 168.144 83.8896 168.332 83.9989C169.192 84.489 169.943 85.1225 170.828 85.6594ZM171.811 75.1755C171.366 72.9444 170.729 72.1277 169.399 72.0474C169.788 73.3751 169.998 74.8333 171.811 75.1755ZM173.072 84.9077C173.065 87.0997 173.421 87.7575 175.167 88.804C175.135 88.039 174.93 87.2909 174.567 86.6161C174.204 85.9413 173.693 85.3572 173.072 84.9077ZM166.304 74.8975C166.557 76.9804 167.16 77.8939 168.492 78.1016C167.866 76.9006 168.041 75.2668 166.321 74.8761L166.304 74.8975ZM167.033 66.6251C167.639 68.0689 167.867 69.7023 169.776 69.8287C169.462 68.3119 168.428 67.4114 167.05 66.6038L167.033 66.6251ZM171.587 78.6714C171.404 80.0848 172.241 80.7345 173.278 81.3252C173.446 79.918 172.595 79.2649 171.604 78.65L171.587 78.6714Z" fill="#634DBC"/>
<path d="M177.585 177.047C178.132 177.381 178.546 177.894 178.757 178.499C180.617 182.541 182.234 186.706 183.835 190.867C184.027 191.364 184.109 191.833 184.854 191.568C184.949 191.532 185.051 191.518 185.152 191.527C185.254 191.536 185.352 191.566 185.44 191.617C185.529 191.668 185.604 191.738 185.663 191.822C185.721 191.905 185.76 192 185.777 192.101C185.804 192.614 185.339 192.635 184.89 192.616C184.767 192.613 184.647 192.595 184.528 192.587C184.701 194.015 184.843 194.256 186.236 194.326C188.546 194.432 190.817 194.827 193.126 194.718C193.727 194.683 194.719 194.63 194.741 195.148C194.764 195.667 193.816 195.873 193.203 195.934C191.642 196.048 190.082 196.118 188.517 196.194C187.746 196.169 186.975 196.25 186.226 196.434C186.251 196.629 186.346 196.808 186.494 196.938C186.642 197.067 186.832 197.138 187.029 197.137C188.651 197.46 190.299 197.641 191.953 197.678C192.418 197.655 192.883 197.732 193.317 197.903C193.554 198.007 193.927 198.054 193.917 198.394C193.907 198.734 193.575 198.811 193.342 198.932C192.332 199.444 191.236 199.198 190.175 199.259C189.818 199.279 189.24 198.904 189.174 199.465C189.13 199.814 189.764 199.717 190.091 199.788C193.181 200.326 196.32 200.523 199.452 200.374C199.789 200.348 200.126 200.345 200.463 200.363C200.866 200.407 201.501 200.32 201.554 200.757C201.608 201.194 200.965 201.345 200.564 201.419C197.601 201.96 194.579 202.109 191.576 201.862C190.73 201.803 189.866 201.667 189.019 201.554C188.751 201.493 188.47 201.53 188.227 201.66C187.985 201.789 187.797 202.002 187.699 202.259C185.752 205.728 184.172 209.426 181.571 212.503C181.333 212.82 181.056 213.107 180.747 213.355C180.482 213.549 180.099 213.95 179.81 213.615C179.521 213.28 179.135 212.866 179.591 212.266C180.959 210.34 182.119 208.276 183.053 206.107C183.77 204.586 184.134 202.923 184.117 201.241C184.101 199.559 183.705 197.902 182.959 196.393C182.68 195.81 182.467 195.198 182.324 194.568C181.636 191.04 180.516 187.612 179.727 184.108C179.323 182.309 178.726 180.559 177.946 178.888C177.618 178.334 177.49 177.684 177.585 177.047Z" fill="#634DBC"/>
<path d="M221.989 113.933C221.607 112.825 221.745 112.045 222.688 111.495C223.992 110.777 225.339 110.094 226.836 111.008C228.617 112.05 230.209 113.385 231.546 114.956C232.582 116.142 233.834 117.119 235.236 117.836C235.481 118.019 235.789 118.097 236.092 118.055C236.395 118.012 236.669 117.851 236.854 117.608C233.937 116.057 231.968 113.382 229.319 111.515C229.053 111.308 228.821 111.06 228.631 110.782C228.394 110.471 228.02 110.076 228.296 109.739C228.572 109.402 229.057 109.586 229.403 109.753C230.898 110.421 232.304 111.272 233.589 112.289C235.141 113.498 236.841 114.506 238.646 115.289C239.053 115.434 239.426 115.663 239.74 115.959C240.055 116.255 240.305 116.613 240.475 117.01C240.551 117.18 240.614 117.365 240.815 117.414C241.865 117.64 241.361 118.156 240.999 118.565C240.592 119.025 240.104 119.406 239.559 119.69C238.803 120.089 235.431 121.747 233.335 120.352C231.434 119.041 229.77 117.415 228.416 115.545C227.594 114.59 226.687 113.713 225.706 112.923C225.552 112.771 225.355 112.671 225.141 112.638C224.928 112.604 224.71 112.638 224.517 112.735C223.662 113.08 222.718 113.217 221.989 113.933Z" fill="#634DBC"/>
<path d="M158.062 120.834C157.768 120.366 157.61 119.825 157.606 119.272C156.458 108.846 153.555 98.8139 150.548 88.8116C148.827 83.0855 146.628 77.5133 143.974 72.1541C143.679 71.564 143.37 70.6412 143.87 70.3807C144.486 70.0547 145.027 70.8465 145.37 71.422C146.45 73.2463 147.391 75.1492 148.186 77.1144C150.469 82.6207 152.397 88.2667 153.959 94.0179C156.13 102.442 157.94 110.936 158.246 119.671C158.303 120.069 158.239 120.474 158.062 120.834Z" fill="#634DBC"/>
<path d="M254.674 105.706L252.072 108.567C251.395 109.269 250.816 110.06 250.351 110.918C249.811 112.003 248.77 112.695 247.827 113.431C247.438 113.727 247.09 114.072 246.789 114.457C246.209 115.198 245.422 115.749 244.527 116.04C243.632 116.331 242.67 116.349 241.764 116.092C239.492 115.491 237.641 114.081 235.654 112.935C234.562 112.301 233.544 111.546 232.622 110.684C232.113 110.213 231.368 109.451 231.784 108.944C232.2 108.436 233.158 108.828 233.782 109.268C235.189 110.259 236.569 111.327 238.002 112.242C239.283 113.059 240.798 113.121 242.26 113.248C243.093 113.323 243.916 113.345 244.552 112.634C244.726 112.454 244.961 112.346 245.21 112.333C247.012 112.318 247.968 110.921 249.118 109.889C250.899 108.294 252.113 106.234 253.536 104.354C255.358 101.934 257.385 99.6559 258.782 96.924C259.129 96.2609 259.851 95.4773 260.517 95.8981C261.184 96.3189 260.707 97.2503 260.361 97.9133C258.753 100.71 256.847 103.322 254.674 105.706Z" fill="#634DBC"/>
<path d="M216.875 206.475C216.744 206.766 216.549 207.025 216.304 207.231C216.059 207.437 215.771 207.585 215.462 207.666C214.625 207.969 213.767 208.213 212.896 208.395C209.465 209.067 206.104 210.054 202.857 211.344C203.818 211.664 204.86 211.648 205.81 211.299C207.022 210.953 208.268 210.739 209.526 210.663C210.205 210.62 211.209 210.639 211.259 211.288C211.31 211.937 210.275 211.965 209.665 211.956C208.78 211.945 208.093 212.455 207.324 212.717C205.502 213.398 203.522 213.54 201.62 213.127C199.531 212.631 197.41 212.278 195.273 212.072C194.836 212.026 194.88 211.929 194.976 211.506C195.383 209.688 196.782 209.619 198.161 209.65C200.91 209.68 203.641 209.22 206.226 208.29C207.131 207.99 208.071 207.808 209.022 207.75C211.172 207.586 213.298 207.189 215.361 206.565C215.843 206.373 216.374 206.341 216.875 206.475Z" fill="#634DBC"/>
<path d="M314.483 193.922C314.967 192.565 315.533 191.239 316.178 189.951C316.593 188.943 317.183 188.015 317.084 186.826C317.069 186.12 316.803 185.442 316.332 184.915C316.105 184.684 315.939 184.402 315.846 184.093C315.753 183.783 315.738 183.456 315.8 183.139C315.982 182.358 315.911 181.539 315.595 180.801C315.322 180.238 315.975 179.103 316.747 178.708C317.744 178.314 318.793 178.064 319.861 177.963C320.222 177.884 320.572 178.188 320.849 178.549C321.233 179.112 321.414 179.79 321.361 180.469C321.365 183.514 320.411 186.482 318.633 188.953C317.623 190.296 316.662 191.687 315.667 193.043C315.402 193.479 314.977 193.794 314.483 193.922Z" fill="#634DBC"/>
<path d="M173.069 165.631C172.703 165.398 172.429 165.044 172.296 164.631C169.198 157.207 165.207 150.196 161.964 142.841C161.291 141.501 160.7 140.122 160.193 138.711C159.938 137.93 159.698 136.858 160.455 136.567C161.032 136.343 161.489 137.414 161.806 138.085C163.705 142.32 165.604 146.555 167.503 150.79C169.402 155.025 171.326 159.371 172.863 163.818C173.226 164.795 173.257 164.856 173.069 165.631Z" fill="#634DBC"/>
<path d="M141.057 67.2282C140.589 67.1267 140.166 66.8772 139.851 66.5167C138.79 65.2862 137.632 64.1432 136.388 63.099C135.142 61.954 135.017 60.5022 135.234 59.046C135.318 58.437 135.239 57.8163 135.003 57.2478C134.767 56.6794 134.384 56.1839 133.893 55.8125C132.104 54.0328 130.118 52.4629 127.974 51.1332C127.502 50.9008 127.107 50.537 126.837 50.0857C126.723 49.8758 126.505 49.6615 126.647 49.4116C126.789 49.1618 127.084 49.2605 127.32 49.2667C127.962 49.3587 128.573 49.5997 129.106 49.9703C131.685 51.1429 134.012 52.8042 135.96 54.862C136.969 55.9204 137.519 57.334 137.489 58.7944C137.422 59.8235 137.56 60.8561 137.896 61.8319C138.232 62.8078 138.758 63.7074 139.445 64.4783C140.215 65.2376 140.771 66.1861 141.057 67.2282Z" fill="#634DBC"/>
<path d="M209.365 202.002C209.232 202.299 209.027 202.559 208.77 202.759C208.512 202.959 208.209 203.093 207.888 203.149C203.424 204.285 198.839 204.877 194.231 204.912C191.441 204.821 188.721 205.78 186.608 207.599C186.256 207.909 185.754 208.445 185.337 208.058C184.92 207.672 185.239 207.085 185.585 206.663C186.127 205.784 186.739 204.95 187.414 204.169C187.91 203.676 188.517 203.31 189.184 203.1C189.851 202.89 190.559 202.842 191.249 202.961C194.914 203.351 198.611 203.306 202.263 202.829C204.011 202.663 205.744 202.373 207.449 201.959C208.073 201.753 208.75 201.768 209.365 202.002Z" fill="#634DBC"/>
<path d="M239.827 196.392C239.979 196.047 240.208 195.743 240.496 195.501C240.785 195.258 241.125 195.085 241.49 194.995C245.056 193.503 248.624 192.017 252.194 190.535C254.213 189.717 256.185 188.79 258.102 187.757C259.011 187.259 260.355 187.191 260.628 187.611C260.901 188.031 260.057 189.171 259.063 189.642C257.364 190.439 255.631 191.145 253.871 191.775C249.851 193.21 245.838 194.65 241.832 196.096C241.205 196.383 240.51 196.485 239.827 196.392Z" fill="#634DBC"/>
<path d="M207.754 102.191C207.522 103.131 207.148 104.029 206.645 104.856C205.012 107.739 202.846 110.287 200.262 112.363C199.931 112.64 199.542 112.84 199.125 112.95C198.707 113.06 198.27 113.077 197.844 112.999C197.521 112.948 197.223 112.796 196.991 112.564C196.76 112.333 196.607 112.034 196.556 111.711C196.462 111.348 196.498 110.964 196.659 110.625C196.82 110.287 197.096 110.016 197.436 109.861C198.421 109.299 199.457 108.832 200.53 108.465C201.898 107.968 203.09 107.082 203.96 105.916C205.033 104.705 205.97 103.365 207.336 102.429C207.439 102.38 207.549 102.3 207.754 102.191Z" fill="#634DBC"/>
<path d="M242.221 199.193C241.881 199.836 241.308 200.326 240.618 200.559C238.575 201.458 236.359 201.706 234.238 202.308C230.762 203.274 227.411 204.558 223.893 205.302C222.824 205.516 221.794 205.779 220.711 205.91C220.144 205.991 219.319 205.949 219.221 205.36C219.122 204.77 219.911 204.594 220.443 204.458C221.569 204.175 222.715 203.934 223.859 203.684C228.539 202.668 233.033 200.928 237.793 200.228C238.63 200.032 239.443 199.75 240.22 199.385C240.85 199.111 241.55 199.044 242.221 199.193Z" fill="#634DBC"/>
<path d="M303.921 203.035C303.951 202.41 304.216 201.82 304.665 201.384C307.793 197.435 310.772 193.383 313.502 189.144C313.805 188.542 314.176 187.976 314.606 187.458C315.018 187.054 315.564 186.617 316.076 186.876C316.589 187.135 316.391 187.857 316.253 188.396C316.059 188.98 315.748 189.519 315.341 189.98C312.342 194.141 309.101 198.122 305.636 201.903C305.19 202.443 304.593 202.837 303.921 203.035Z" fill="#634DBC"/>
<path d="M184.531 114.802C185.271 114.842 185.971 115.155 186.496 115.68C189.03 117.778 191.82 119.547 194.798 120.945C195.038 121.079 195.293 121.185 195.557 121.263C196.747 121.514 196.861 122.697 197.448 123.455C197.657 123.724 197.293 123.917 197.01 123.989C196.361 124.202 195.657 124.174 195.026 123.91C192.78 123.124 191.01 121.593 189.125 120.192C187.506 118.99 186.533 117.175 184.985 115.907C184.832 115.768 184.711 115.597 184.633 115.406C184.554 115.215 184.519 115.008 184.531 114.802Z" fill="#634DBC"/>
<path d="M310.112 191.109C310.023 190.423 310.16 189.726 310.503 189.125C311.178 187.72 311.705 186.249 312.078 184.734C312.19 184.094 312.225 183.462 312.269 182.819C312.308 182.621 312.303 182.417 312.255 182.22C312.207 182.024 312.116 181.841 311.989 181.683C311.862 181.526 311.702 181.398 311.521 181.308C311.339 181.219 311.141 181.171 310.939 181.166C310.064 180.993 309.214 180.709 308.411 180.32C308.032 180.177 307.694 179.943 307.427 179.639C307.16 179.334 306.972 178.968 306.88 178.574C308.594 178.951 310.278 178.893 311.925 179.242C313.975 179.688 314.676 180.602 314.454 182.707C314.233 184.812 313.318 186.376 312.393 188.074C312.103 188.614 311.839 189.165 311.528 189.697C311.259 190.335 310.751 190.842 310.112 191.109Z" fill="#634DBC"/>
<path d="M292.095 219.142C292.16 218.588 292.434 218.081 292.862 217.725C297.774 213.271 302.294 208.404 306.373 203.176C306.576 202.865 306.841 202.597 307.15 202.39C307.459 202.183 307.808 202.041 308.174 201.972C308.23 202.257 308.214 202.552 308.129 202.829C308.044 203.107 307.891 203.359 307.684 203.563C303.45 208.94 298.767 213.948 293.685 218.533C293.257 218.938 292.685 219.157 292.095 219.142Z" fill="#634DBC"/>
<path d="M250.052 187.405C250.432 187.006 250.885 186.683 251.387 186.453C253.523 185.309 255.78 184.443 257.987 183.464C258.375 183.273 258.805 183.183 259.238 183.203C259.655 183.241 260.185 183.139 260.414 183.559C260.643 183.979 260.327 184.506 260.047 184.902C259.713 185.346 259.257 185.683 258.734 185.872L252.112 188.593C251.632 188.804 251.102 188.872 250.584 188.787C250.229 188.729 249.733 188.734 249.623 188.376C249.514 188.018 249.803 187.719 250.052 187.405Z" fill="#634DBC"/>
<path d="M259.513 192.807C259.191 193.191 258.802 193.514 258.365 193.76C255.155 195.658 251.656 196.892 248.189 198.187C248.104 198.22 248.016 198.243 247.926 198.257C247.347 198.319 246.588 198.536 246.374 197.879C246.22 197.369 246.991 197.268 247.4 197.085C250.949 195.578 254.42 193.893 257.799 192.037C258.065 191.884 258.352 191.77 258.65 191.698C259.062 191.598 259.621 191.44 259.859 191.795C260.096 192.15 259.629 192.545 259.513 192.807Z" fill="#634DBC"/>
<path d="M267.71 63.2767C268.745 64.1479 269.698 65.1134 270.554 66.1608C270.972 66.6454 271.508 67.4328 271.034 67.8578C270.561 68.2828 269.847 67.68 269.411 67.207C267.784 65.4003 265.892 63.8505 263.8 62.6104C263.086 62.2041 262.301 61.9179 261.557 61.5588C261.337 61.4513 261.128 61.3221 260.934 61.1731C260.741 61.0152 260.495 60.8134 260.53 60.5741C260.565 60.3348 260.912 60.3251 261.148 60.2773C261.759 60.1813 262.385 60.2629 262.951 60.5125C264.684 61.1535 266.294 62.0886 267.71 63.2767Z" fill="#634DBC"/>
<path d="M183.622 214.094C183.572 213.868 183.57 213.634 183.616 213.407C183.662 213.179 183.754 212.965 183.888 212.776C184.468 211.691 185.255 210.73 186.205 209.948C187.115 209.23 187.837 208.294 188.871 207.72C189.346 207.447 189.876 207.283 190.423 207.238C190.97 207.193 191.52 207.27 192.034 207.463C192.366 207.582 192.697 207.746 192.166 208.044C192.114 208.108 190.974 209.38 190.398 209.864C190.081 210.132 189.534 210.122 189.084 210.235C187.563 210.537 186.224 211.426 185.356 212.71C185.187 213.054 184.944 213.357 184.644 213.596C184.345 213.835 183.996 214.005 183.622 214.094Z" fill="#634DBC"/>
<path d="M214.004 92.7611L215.462 90.9813C215.796 90.5777 216.235 90.2729 216.73 90.0997C217.122 89.948 217.305 90.0528 217.222 90.5032C217.169 90.9304 217.01 91.3376 216.761 91.6885C215.201 93.7781 213.653 95.8764 212.087 97.9615C211.619 98.5874 210.875 99.442 210.3 99.0515C209.725 98.661 210.389 97.7309 210.801 97.1399C211.784 95.6201 212.853 94.158 214.004 92.7611Z" fill="#634DBC"/>
<path d="M229.618 199.658C229.372 200.155 228.941 200.536 228.417 200.719C227.552 201.116 226.643 201.408 225.708 201.591C223.066 202.153 220.456 202.857 217.889 203.697C217.206 203.979 216.468 204.104 215.729 204.062C215.291 204.007 215.105 203.864 215.429 203.424C215.762 202.981 216.234 202.663 216.769 202.52C218.764 201.907 220.797 201.425 222.855 201.076C224.846 200.732 226.881 200.596 228.77 199.776C229.046 199.698 229.331 199.659 229.618 199.658Z" fill="#634DBC"/>
<path d="M214.523 125.198C214.013 125.715 213.409 126.129 212.743 126.42C211.104 127.182 209.416 127.838 207.691 128.381C207.344 128.506 206.972 128.553 206.604 128.518C206.32 128.472 205.88 128.55 205.817 128.212C205.754 127.875 206.108 127.683 206.369 127.539C207.412 127.018 208.475 126.54 209.514 126.025C210.783 125.475 211.972 124.758 213.05 123.893C213.094 123.85 213.143 123.812 213.196 123.781C213.756 123.48 214.454 122.944 214.932 123.497C215.41 124.049 214.819 124.672 214.523 125.198Z" fill="#634DBC"/>
<path d="M215.905 197.579C215.625 197.93 215.251 198.193 214.826 198.339C212.154 199.354 209.404 200.154 206.604 200.731C205.979 200.91 205.31 200.852 204.725 200.567C204.361 200.367 204.348 200.186 204.718 200.008C204.935 199.894 205.166 199.807 205.405 199.748C208.297 199.242 210.997 198.077 213.72 197.101C214.282 196.841 214.904 196.734 215.521 196.791C216.093 196.902 216.381 197.085 215.905 197.579Z" fill="#634DBC"/>
<path d="M244.935 202.202C245.288 201.645 245.839 201.241 246.478 201.073C248.226 200.424 249.988 199.813 251.744 199.188C252.12 199.049 252.524 198.997 252.923 199.038C253.186 199.066 253.525 198.968 253.655 199.236C253.785 199.503 253.647 199.89 253.454 200.169C253.132 200.622 252.666 200.952 252.133 201.105C250.792 201.552 249.441 201.955 248.125 202.448C247.609 202.65 247.055 202.733 246.502 202.691C245.95 202.648 245.414 202.481 244.935 202.202Z" fill="#634DBC"/>
<path d="M268.273 78.6985C268.255 78.3612 268.307 78.0239 268.427 77.7083C268.547 77.3927 268.731 77.1057 268.969 76.866C270.149 75.3052 271.456 73.8301 272.116 71.9324C272.25 71.5507 272.388 71.262 272.018 70.9593C271.935 70.869 271.869 70.7638 271.825 70.6492C271.497 70.0771 271.112 69.1717 271.55 68.8878C272.159 68.4937 272.861 69.1665 273.276 69.7299C273.826 70.457 273.712 71.1856 273.431 72.1075C272.767 74.3054 271.212 75.8097 269.836 77.4783C269.44 78.0235 268.898 78.4463 268.273 78.6985Z" fill="#634DBC"/>
<path d="M227.059 206.342C226.731 206.801 226.254 207.132 225.708 207.28C222.394 208.388 219.116 209.615 215.707 210.413C215.233 210.549 214.734 210.571 214.249 210.478C214.018 210.422 213.697 210.409 213.635 210.135C213.573 209.861 213.875 209.733 214.105 209.627C214.434 209.47 214.78 209.349 215.135 209.265C218.653 208.575 222.061 207.365 225.53 206.482C226.026 206.379 226.504 206.146 227.059 206.342Z" fill="#634DBC"/>
<path d="M194.365 207.032C194.79 206.738 195.301 206.594 195.818 206.623C197.746 206.765 199.684 206.716 201.602 206.476C202.043 206.418 202.753 206.392 202.841 206.776C202.929 207.161 202.276 207.466 201.867 207.703C201.674 207.793 201.468 207.853 201.256 207.881C199.502 208.23 197.77 208.544 196.032 208.862C195.79 208.892 195.544 208.895 195.301 208.87C195.178 208.861 195.057 208.837 194.94 208.798C194.643 208.248 194.448 207.65 194.365 207.032Z" fill="#634DBC"/>
<path d="M209.961 197.059C209.644 197.352 209.26 197.565 208.844 197.68C207.129 198.251 205.345 198.592 203.54 198.694C202.802 198.742 201.701 198.688 201.635 198.027C201.568 197.365 202.674 197.172 203.39 197.107C205.105 196.975 206.799 196.645 208.437 196.123C208.844 195.979 209.28 195.938 209.707 196.003C209.973 196.051 210.334 196.025 210.418 196.326C210.502 196.627 210.266 196.719 209.961 197.059Z" fill="#634DBC"/>
<path d="M245.856 190.059C245.498 190.413 245.079 190.699 244.618 190.903C242.588 191.776 240.479 192.455 238.32 192.934C237.707 193.092 236.773 193.238 236.604 192.626C236.434 192.014 237.326 191.744 237.941 191.605C240.174 191.046 242.367 190.343 244.507 189.499C244.833 189.396 245.174 189.349 245.515 189.36C245.711 189.351 245.992 189.313 246.088 189.535C246.184 189.756 245.955 189.926 245.856 190.059Z" fill="#634DBC"/>
<path d="M243.927 173.607C243.796 173.739 243.653 173.859 243.5 173.964C242.245 174.668 240.919 175.237 239.542 175.661C239.023 175.825 238.238 175.932 238.005 175.473C237.772 175.014 238.317 174.371 238.795 174.083C240.175 173.231 241.691 172.618 243.277 172.271C243.648 172.2 244.18 172.118 244.352 172.553C244.523 172.988 244.178 173.224 243.927 173.607Z" fill="#634DBC"/>
<path d="M233.348 172.551C233.135 172.853 232.833 173.08 232.485 173.201C230.73 173.738 228.976 174.284 227.213 174.787C226.563 174.969 225.567 175.126 225.396 174.504C225.226 173.882 226.266 173.77 226.845 173.565C228.396 173.005 229.954 172.468 231.512 171.931C231.932 171.74 232.388 171.642 232.849 171.642C233.142 171.668 233.528 171.6 233.655 171.936C233.782 172.273 233.442 172.405 233.348 172.551Z" fill="#634DBC"/>
<path d="M241.942 210.138C241.577 210.506 241.103 210.744 240.59 210.816C238.622 211.143 236.643 211.352 234.691 211.781C234.277 211.87 233.567 211.994 233.467 211.538C233.367 211.081 234.009 210.767 234.473 210.638C236.543 210.074 238.652 209.661 240.782 209.402C241.086 209.39 241.391 209.428 241.683 209.515C242.143 209.641 242.242 209.848 241.942 210.138Z" fill="#634DBC"/>
<path d="M226.036 197.947C225.901 198.199 225.715 198.421 225.49 198.598C225.265 198.775 225.006 198.903 224.729 198.975C222.656 199.528 220.59 200.051 218.495 200.567C217.991 200.69 217.214 200.732 217.066 200.29C216.919 199.847 217.642 199.467 218.108 199.357C220.532 198.833 222.968 198.372 225.408 197.906C225.618 197.894 225.829 197.908 226.036 197.947Z" fill="#634DBC"/>
<path d="M241.491 207.16C242.009 205.37 247.609 203.339 249.248 204.485C248.845 205.075 242.499 207.263 241.491 207.16Z" fill="#634DBC"/>
<path d="M153.988 59.0559C155.111 59.0828 155.782 59.8374 156.384 60.5003C157.272 61.4692 157.993 62.5872 159.107 63.3472C159.187 63.39 159.258 63.4481 159.315 63.5183C159.624 63.994 159.993 64.6357 159.624 65.0307C159.357 65.3567 158.684 64.9121 158.364 64.5701C156.982 63.0897 155.641 61.5709 154.309 60.0512C154.191 59.9155 154.102 59.7574 154.047 59.5863C153.991 59.4152 153.972 59.2348 153.988 59.0559Z" fill="#634DBC"/>
<path d="M237.919 184.709C237.819 184.874 237.685 185.016 237.525 185.124C237.365 185.232 237.184 185.304 236.994 185.336C235.56 185.447 234.32 186.164 232.986 186.59C231.764 186.989 230.509 187.282 229.236 187.466C228.998 187.494 228.697 187.534 228.618 187.227C228.538 186.92 228.854 186.84 229.085 186.788C231.723 186.189 234.147 184.977 236.713 184.105C236.972 184.02 237.241 183.967 237.513 183.948C237.743 183.94 238.044 183.901 238.16 184.174C238.276 184.448 237.998 184.568 237.919 184.709Z" fill="#634DBC"/>
<path d="M205.902 117.537C204.873 118.257 203.649 119.041 202.047 118.845C201.743 118.801 201.391 118.718 201.328 118.38C201.264 118.043 201.554 117.896 201.785 117.746C202.907 117.064 204.115 116.533 205.376 116.168C205.719 116.056 206.265 115.914 206.462 116.317C206.66 116.72 206.283 117.027 205.902 117.537Z" fill="#634DBC"/>
<path d="M235.784 153.218C235.121 153.795 234.35 154.235 233.516 154.512C232.623 154.994 231.652 155.314 230.647 155.458C230.32 155.476 229.881 155.563 229.73 155.224C229.578 154.886 230.009 154.676 230.242 154.456C230.608 154.179 231.026 153.978 231.47 153.864C232.759 153.383 234.052 152.897 235.327 152.432C235.56 152.355 235.924 152.261 236.076 152.545C236.227 152.83 235.928 152.987 235.784 153.218Z" fill="#634DBC"/>
<path d="M209.202 118.794C209.118 119.23 208.87 119.618 208.51 119.879C207.185 120.822 205.645 121.418 204.03 121.613C203.637 121.666 203.026 121.746 202.924 121.269C202.822 120.793 203.449 120.717 203.806 120.608C205.154 120.207 206.459 119.676 207.702 119.02C208.171 118.806 208.69 118.728 209.202 118.794Z" fill="#634DBC"/>
<path d="M312.382 197.774C312.139 198.245 311.527 198.458 311.278 199.013C311.18 199.219 310.866 199.265 310.616 199.132C310.5 199.088 310.404 199.001 310.348 198.889C310.292 198.777 310.28 198.648 310.315 198.528C310.818 197.324 311.277 196.065 312.549 195.419C312.811 195.285 313.169 195.034 313.396 195.291C313.624 195.549 313.441 195.881 313.36 196.155C313.135 196.749 312.803 197.298 312.382 197.774Z" fill="#634DBC"/>
<path d="M228.652 147.616C227.744 148.31 226.891 149.013 225.693 148.979C225.116 148.962 224.844 148.748 225.243 148.217C225.627 147.684 226.127 147.244 226.704 146.931C227.282 146.617 227.923 146.437 228.58 146.405C228.751 146.393 229.016 146.386 229.059 146.574C229.152 147.007 228.802 147.292 228.652 147.616Z" fill="#634DBC"/>
<path d="M221.934 138.201C221.593 138.587 221.17 138.892 220.695 139.094C220.22 139.295 219.707 139.388 219.191 139.365C218.466 139.289 218.387 138.948 218.817 138.424C219.439 137.702 220.266 137.187 221.19 136.947C221.586 136.835 222.16 136.68 222.388 137.036C222.615 137.392 222.181 137.813 221.934 138.201Z" fill="#634DBC"/>
<path d="M208.384 205.592C207.935 206.012 207.375 206.294 206.77 206.405C206.166 206.516 205.541 206.451 204.972 206.218C204.381 205.912 204.463 205.604 204.928 205.288C205.383 204.971 205.897 204.748 206.44 204.633C206.983 204.518 207.544 204.513 208.089 204.618C208.809 204.734 208.876 205.013 208.384 205.592Z" fill="#634DBC"/>
<path d="M235.01 189.811C234.106 191.285 230.443 192.491 228.798 191.867C230.741 190.847 232.84 190.152 235.01 189.811Z" fill="#634DBC"/>
<path d="M197.64 118.513C197.953 118.841 198.459 119.184 198.271 119.556C198.082 119.929 197.501 119.819 197.089 119.732C196.329 119.61 195.626 119.255 195.076 118.716C194.835 118.475 194.463 118.143 194.649 117.795C194.836 117.448 195.267 117.587 195.595 117.623C196.334 117.765 197.033 118.069 197.64 118.513Z" fill="#634DBC"/>
<path d="M232.831 176.951C233.082 176.596 233.453 176.344 233.876 176.243C234.432 176.11 235.192 175.893 235.446 176.511C235.699 177.13 235.047 177.533 234.549 177.858C234.207 178.068 233.81 178.172 233.409 178.157C233.07 178.156 232.648 178.168 232.494 177.854C232.34 177.54 232.616 177.213 232.831 176.951Z" fill="#634DBC"/>
<path d="M242.846 203.322C242.008 204.032 240.947 204.427 239.847 204.438C239.641 204.439 239.366 204.446 239.275 204.219C239.183 203.993 239.412 203.823 239.567 203.699C240.431 203.001 241.502 202.608 242.614 202.578C242.781 202.572 243.036 202.62 243.102 202.737C243.213 202.962 242.963 203.114 242.846 203.322Z" fill="#634DBC"/>
<path d="M190.399 191.984C190.003 192.344 189.504 192.57 188.972 192.632C188.44 192.695 187.901 192.589 187.432 192.331C187.042 192.074 187 191.852 187.423 191.609C187.842 191.352 188.313 191.192 188.802 191.141C189.291 191.091 189.786 191.15 190.249 191.316C190.789 191.509 190.637 191.759 190.399 191.984Z" fill="#634DBC"/>
<path d="M240.535 182.967C240.677 182.77 240.858 182.603 241.067 182.48C241.276 182.356 241.509 182.277 241.751 182.248C242.247 182.199 242.927 182.024 243.112 182.596C243.297 183.167 242.678 183.41 242.237 183.665C241.837 183.901 241.362 183.978 240.907 183.879C240.651 183.831 240.31 183.81 240.222 183.514C240.133 183.218 240.444 183.089 240.535 182.967Z" fill="#634DBC"/>
<path d="M237.394 188.844C237.59 188.569 237.87 188.365 238.191 188.264C238.789 188.102 239.439 187.964 239.903 188.478C240.164 188.772 239.313 189.647 238.606 189.8C238.339 189.85 238.067 189.859 237.798 189.826C237.525 189.799 237.204 189.742 237.098 189.467C236.992 189.193 237.301 188.99 237.394 188.844Z" fill="#634DBC"/>
<path d="M229.666 184.004C229.382 184.307 229.014 184.518 228.609 184.61C228.203 184.702 227.78 184.669 227.393 184.517C227.243 184.395 227.136 184.307 227.192 184.085C227.389 183.723 227.69 183.428 228.056 183.238C228.422 183.048 228.837 182.971 229.247 183.018C229.52 183.045 229.844 183.043 229.966 183.321C230.087 183.599 229.78 183.82 229.666 184.004Z" fill="#634DBC"/>
<path d="M220.285 87.671C219.818 88.0118 219.288 88.7028 218.753 88.2739C218.314 87.9142 218.743 87.1939 219.067 86.7444C219.39 86.2949 220.078 85.7063 220.57 86.1001C221.061 86.4939 220.566 87.1421 220.285 87.671Z" fill="#634DBC"/>
<path d="M300.732 205.835C301.175 205.448 301.621 204.947 302.293 205.229C302.617 205.369 302.263 206.5 301.755 206.914C301.35 207.243 300.742 207.647 300.377 207.295C299.942 206.876 300.446 206.315 300.732 205.835Z" fill="#634DBC"/>
<path d="M184.565 189.08C184.222 188.8 184.32 188.594 184.645 188.404C184.982 188.191 185.371 188.073 185.77 188.062C186.17 188.051 186.565 188.148 186.914 188.343C187.35 188.575 187.41 188.83 186.98 189.147C186.619 189.383 186.194 189.502 185.763 189.49C185.331 189.479 184.914 189.336 184.565 189.08Z" fill="#634DBC"/>
<path d="M268.276 173.995C268.382 174.555 268.337 175.134 268.146 175.67C267.954 176.207 267.624 176.684 267.187 177.05C267.086 177.173 266.929 177.365 266.717 177.219C266.506 177.073 266.59 176.883 266.632 176.712C266.71 176.171 266.896 175.653 267.178 175.186C267.461 174.719 267.834 174.314 268.276 173.995Z" fill="#634DBC"/>
<path d="M235.943 197.801C235.706 198.282 235.336 198.685 234.877 198.962C234.418 199.24 233.89 199.381 233.353 199.368C233.182 199.38 232.94 199.414 232.852 199.226C232.765 199.038 232.986 198.844 233.13 198.712C233.505 198.367 233.951 198.106 234.436 197.949C234.922 197.792 235.436 197.741 235.943 197.801Z" fill="#634DBC"/>
<path d="M210.902 204.538C211.083 204.291 211.329 204.1 211.613 203.986C212.047 203.85 212.633 203.571 212.882 203.989C213.13 204.407 212.637 204.878 212.258 205.176C212.026 205.322 211.762 205.412 211.489 205.438C211.19 205.497 210.815 205.529 210.631 205.262C210.447 204.995 210.844 204.74 210.902 204.538Z" fill="#634DBC"/>
<path d="M232.163 162.934C231.69 163.512 230.865 163.657 230.452 163.319C230.04 162.982 230.358 162.768 230.569 162.522C230.754 162.271 231.023 162.096 231.326 162.028C231.63 161.961 231.948 162.005 232.223 162.152C232.66 162.394 232.252 162.739 232.163 162.934Z" fill="#634DBC"/>
<path d="M180.671 110.908C181.65 111.067 182.072 111.797 182.441 112.581C182.497 112.698 182.613 112.883 182.436 112.979C182.298 113.038 182.143 113.045 182.001 112.998C181.584 112.838 181.23 112.549 180.99 112.172C180.751 111.796 180.639 111.352 180.671 110.908Z" fill="#634DBC"/>
<path d="M161.519 75.3098C161.696 75.5528 162.21 75.8756 161.821 76.1644C161.313 76.5339 160.687 76.2713 160.232 75.8542C160.002 75.6656 159.563 75.3059 159.895 75.0423C160.376 74.6411 161.003 74.8595 161.519 75.3098Z" fill="#634DBC"/>
<path d="M226.319 170.33C226.252 170.411 226.168 170.476 226.073 170.523C225.978 170.569 225.875 170.595 225.77 170.6C225.664 170.604 225.559 170.587 225.461 170.548C225.363 170.51 225.273 170.451 225.199 170.377C225.113 170.315 225.042 170.236 224.991 170.144C224.939 170.053 224.908 169.951 224.899 169.846C224.89 169.742 224.905 169.636 224.941 169.538C224.977 169.439 225.034 169.349 225.108 169.275C225.168 169.185 225.246 169.108 225.338 169.051C225.431 168.994 225.534 168.958 225.642 168.945C225.749 168.932 225.859 168.943 225.962 168.976C226.065 169.01 226.16 169.065 226.239 169.139C226.332 169.206 226.409 169.292 226.464 169.392C226.519 169.492 226.552 169.602 226.56 169.716C226.567 169.83 226.55 169.944 226.508 170.05C226.467 170.156 226.402 170.252 226.319 170.33Z" fill="#634DBC"/>
<path d="M225.669 188.795C225.177 188.991 224.692 189.54 224.073 188.952C223.848 188.768 223.695 188.562 224.001 188.286C224.384 187.939 225.659 187.813 225.899 188.153C226.14 188.493 225.844 188.581 225.669 188.795Z" fill="#634DBC"/>
<path d="M198.563 197.386C198.847 197.618 198.952 197.785 198.762 198.049C198.554 198.277 198.272 198.425 197.966 198.465C197.66 198.505 197.349 198.435 197.089 198.268C196.853 198.075 196.812 197.863 197.036 197.644C197.221 197.432 197.475 197.29 197.753 197.243C198.031 197.196 198.317 197.246 198.563 197.386Z" fill="#634DBC"/>
<path d="M214.118 194.704C214.407 194.941 214.261 195.152 214.097 195.33C213.923 195.549 213.68 195.702 213.407 195.766C213.134 195.829 212.848 195.799 212.594 195.679C212.26 195.531 212.448 195.247 212.612 195.078C212.792 194.866 213.034 194.715 213.304 194.648C213.575 194.581 213.859 194.6 214.118 194.704Z" fill="#634DBC"/>
<path d="M159.457 131.462C159.689 131.693 159.844 131.989 159.9 132.311C159.957 132.632 159.913 132.963 159.775 133.259C159.671 133.505 159.529 133.558 159.287 133.341C159.08 133.098 158.952 132.798 158.92 132.481C158.887 132.165 158.951 131.845 159.104 131.566C159.25 131.355 159.376 131.387 159.457 131.462Z" fill="#634DBC"/>
<path d="M231.299 205.939C231.101 206.132 230.849 206.262 230.576 206.311C230.303 206.36 230.022 206.325 229.769 206.212C229.445 206.072 229.702 205.845 229.842 205.718C230.037 205.499 230.297 205.347 230.584 205.285C230.871 205.224 231.171 205.255 231.439 205.374C231.795 205.541 231.373 205.749 231.299 205.939Z" fill="#634DBC"/>
<path d="M231.979 182.37C232.118 182.21 232.31 182.105 232.52 182.072C232.729 182.04 232.944 182.083 233.126 182.194C233.356 182.338 233.204 182.579 233.057 182.736C232.926 182.906 232.736 183.021 232.523 183.058C232.311 183.094 232.093 183.049 231.912 182.932C231.676 182.783 231.85 182.56 231.979 182.37Z" fill="#634DBC"/>
<path d="M230.365 178.672C230.414 178.699 230.456 178.739 230.486 178.787C230.515 178.835 230.531 178.89 230.532 178.946C230.534 179.003 230.52 179.058 230.492 179.108C230.465 179.157 230.425 179.198 230.376 179.227C230.234 179.387 230.05 179.503 229.844 179.56C229.638 179.618 229.419 179.615 229.215 179.552C228.927 179.433 229.123 179.183 229.249 179.018C229.37 178.844 229.545 178.716 229.747 178.653C229.949 178.59 230.167 178.597 230.365 178.672Z" fill="#634DBC"/>
<path d="M251.598 132.571C252.148 132.564 252.687 132.726 253.143 133.033C255.655 134.397 258.381 135.324 261.202 135.777C262.52 135.925 263.854 135.823 265.133 135.478C265.89 135.323 266.676 135.416 267.376 135.743C268.017 136.054 268.017 136.403 267.629 136.898C267.475 137.128 267.276 137.325 267.044 137.477C266.812 137.629 266.551 137.733 266.278 137.783C264.531 138.004 262.92 138.747 261.205 139.093C258.586 139.626 256.005 140.111 253.358 139.006C251.11 138.064 249.173 136.508 247.768 134.516C247.716 134.442 247.673 134.362 247.641 134.278C247.439 133.782 247.174 133.1 247.593 132.818C248.012 132.536 248.4 133.176 248.686 133.526C250.15 135.38 252.261 136.612 254.595 136.973C254.859 137.011 255.135 137.121 255.405 136.967C255.674 136.813 256.089 136.634 256.105 136.308C256.122 135.982 255.709 135.984 255.476 135.864C254.683 135.402 253.851 134.997 253.062 134.53C252.675 134.349 252.339 134.076 252.084 133.734C251.828 133.392 251.661 132.993 251.598 132.571Z" fill="#634DBC"/>
<path d="M277.82 129.187C277.876 128.559 278.144 127.969 278.581 127.515C281.965 123.615 284.774 119.28 287.832 115.131C290.72 111.245 293.245 107.159 296.503 103.585C296.976 102.971 297.646 102.539 298.401 102.362C298.951 102.268 299.216 102.458 299.204 103.019C299.181 103.609 298.958 104.173 298.573 104.619C293.177 110.998 288.48 117.922 283.074 124.292C281.967 125.644 280.778 126.93 279.633 128.252C279.416 128.529 279.142 128.756 278.829 128.917C278.516 129.079 278.172 129.171 277.82 129.187Z" fill="#634DBC"/>
<path d="M290.468 107.6C290.452 107.336 290.495 107.072 290.594 106.827C290.694 106.582 290.848 106.364 291.044 106.187C293.497 103.596 294.989 100.442 296.372 97.2255C296.494 96.7978 296.712 96.4038 297.009 96.0731C297.307 95.7425 297.675 95.484 298.088 95.3171C298.54 95.1694 298.777 95.2836 298.882 95.7449C299.035 96.4081 298.969 97.1027 298.693 97.724C297.448 100.652 295.447 103.051 293.303 105.34L292.093 106.599C291.684 107.112 291.11 107.465 290.468 107.6Z" fill="#634DBC"/>
<path d="M293.293 79.6977C294.487 80.8184 295.722 81.419 296.64 82.439C297.775 83.6637 297.97 84.3421 297.422 85.4378C297.205 85.8768 296.992 85.8536 296.636 85.6872C296.202 85.4478 295.848 85.0863 295.618 84.6476C294.765 83.23 293.701 81.9512 292.461 80.8558C291.899 80.4238 291.465 79.8462 291.208 79.1859C291.048 78.6709 291.245 78.5827 291.694 78.6908C292.299 78.8945 292.848 79.2397 293.293 79.6977Z" fill="#634DBC"/>
<path d="M300.586 92.7912C300.173 93.2299 299.941 93.6557 299.492 93.5378C299.304 93.4649 299.138 93.3434 299.013 93.1856C298.887 93.0279 298.806 92.8396 298.778 92.6402C298.658 92.351 298.608 92.0378 298.632 91.7259C298.882 90.5606 298.987 89.3686 298.944 88.1771C298.909 87.5763 299.266 87.4673 299.79 87.6369C300.166 87.7291 300.507 87.9316 300.767 88.2185C301.028 88.5053 301.197 88.8635 301.253 89.2468C301.426 90.4701 301.192 91.7156 300.586 92.7912Z" fill="#634DBC"/>
<path d="M274.469 133.355C273.72 133.974 272.863 134.889 271.507 134.885C270.621 134.874 270.425 134.633 270.9 133.932C271.781 132.676 273.096 131.791 274.592 131.446C275.161 131.287 275.324 131.644 275.161 132.117C275.044 132.584 274.806 133.011 274.469 133.355Z" fill="#634DBC"/>
<path d="M246.745 126.961C247.795 128.04 248.67 129.275 249.338 130.622C249.409 130.787 249.468 130.988 249.332 131.144C249.195 131.299 249.046 131.186 248.909 131.146C247.765 130.762 246.405 128.272 246.745 126.961Z" fill="#634DBC"/>
<path d="M313.075 109.328C317.208 113.024 320.081 117.92 321.289 123.328C322.017 126.685 321.639 130.185 320.211 133.305C319.168 135.57 317.508 137.494 315.421 138.858C311.948 141.327 308.407 143.705 304.9 146.119C304.702 146.269 304.487 146.392 304.258 146.487C303.903 146.616 303.463 146.988 303.167 146.629C302.87 146.27 303.179 145.871 303.344 145.506C303.696 144.895 304.198 144.384 304.802 144.021C308.392 141.245 312.004 138.506 315.593 135.721C316.617 134.938 317.545 134.037 318.356 133.036C318.794 132.501 318.744 131.568 318.968 130.858C319.681 128.71 319.648 126.383 318.876 124.253C317.805 121.109 316.265 118.143 314.309 115.456C313.179 113.843 311.828 112.397 310.295 111.159C309.596 110.639 309.102 109.889 308.899 109.042C308.692 108.202 308.998 107.828 309.851 107.759C310.438 107.696 311.028 107.841 311.519 108.169C312.079 108.556 312.612 108.976 313.075 109.328Z" fill="#634DBC"/>
<path d="M276.596 154.818C274.557 153.077 272.73 151.104 271.151 148.938C270.901 148.589 270.698 148.209 270.546 147.808C270.431 147.49 270.21 147.006 270.569 146.809C270.928 146.611 271.258 146.962 271.523 147.206C271.81 147.483 272.072 147.784 272.306 148.107C274.706 151.17 277.922 153.495 281.583 154.813C282.298 155.019 282.916 155.472 283.328 156.091C283.773 156.848 283.618 157.266 282.765 157.532C282.017 157.742 281.218 157.666 280.522 157.321C279.106 156.669 277.785 155.827 276.596 154.818Z" fill="#634DBC"/>
<path d="M295.865 153.107C294.054 154.967 291.699 156.205 289.138 156.644C288.623 156.749 287.773 156.803 287.662 156.327C287.55 155.852 288.305 155.542 288.868 155.422C290.786 154.97 292.532 153.976 293.898 152.559C294.309 152.015 294.896 151.631 295.559 151.471C296.377 151.347 296.544 151.502 296.248 152.268C296.142 152.557 296.014 152.838 295.865 153.107Z" fill="#634DBC"/>
<path d="M300.037 149.379C299.654 149.771 299.159 150.036 298.66 149.716C298.162 149.397 298.455 148.941 298.731 148.604C299.116 148.134 299.653 147.904 300.171 148.31C300.548 148.646 300.25 149.054 300.037 149.379Z" fill="#634DBC"/>
<path d="M325.464 167.324C325.797 166.304 326.353 165.372 327.092 164.594C327.858 163.757 328.967 163.156 329.507 162.214C330.553 160.391 332.346 159.458 333.787 158.147C334.818 157.205 334.812 156.306 334.764 155.196C334.597 152.451 333.475 150.031 332.145 147.69C331.034 145.531 329.624 143.539 327.955 141.775C327.515 141.333 327.237 140.756 327.166 140.137C327.052 139.392 327.169 138.747 328.09 138.661C328.426 138.633 328.509 138.335 328.749 138.227C329.102 138.072 329.492 138.021 329.873 138.08C330.254 138.139 330.611 138.306 330.9 138.561C332.565 139.741 333.874 141.354 334.685 143.224C335.614 145.432 336.723 147.573 336.909 150.022C337.157 151.877 337.3 153.744 337.337 155.615C337.284 156.587 336.915 157.513 336.285 158.254C335.43 159.359 334.428 160.341 333.304 161.172C333.149 161.343 333.013 161.531 332.899 161.732C333.518 161.605 334.098 161.334 334.593 160.941C336.373 159.479 338.109 157.971 338.726 155.591C338.967 154.93 339.1 154.233 339.119 153.528C338.923 149.626 338.106 145.779 336.698 142.132C336.005 140.456 335.025 138.913 333.804 137.572C333.104 136.908 332.678 136.008 332.607 135.047C332.564 134.845 332.571 134.635 332.629 134.436C332.686 134.238 332.792 134.057 332.938 133.91C333.083 133.763 333.263 133.655 333.46 133.595C333.658 133.535 333.868 133.525 334.071 133.566C334.548 133.595 335.014 133.727 335.437 133.951C335.859 134.176 336.229 134.488 336.521 134.868C339.081 137.605 340.698 141.09 341.134 144.81C341.428 147.095 341.578 149.395 341.584 151.699C341.584 155.423 339.857 158.251 337.36 160.743C336.264 161.77 334.988 162.587 333.596 163.153C331.231 164.095 328.99 165.321 326.92 166.802C326.446 167.173 326.344 167.188 325.464 167.324Z" fill="#634DBC"/>
<path d="M302.311 169.472L302.167 169.354C301.599 168.889 300.945 168.192 301.289 167.608C301.575 167.127 302.371 167.717 302.878 168.016C305.899 169.533 309.137 170.573 312.475 171.1C313.202 171.191 313.885 171.499 314.436 171.983C314.881 172.401 314.821 172.78 314.385 173.138C314.065 173.405 313.686 173.592 313.279 173.685C312.872 173.777 312.449 173.771 312.045 173.668C308.593 172.812 305.305 171.394 302.311 169.472Z" fill="#634DBC"/>
<path d="M318.875 170.081C319.699 169.365 320.69 168.866 321.756 168.628C322.267 168.529 322.391 168.782 322.136 169.18C321.809 169.702 321.368 170.142 320.845 170.468C320.323 170.793 319.733 170.996 319.12 171.059C319.003 171.093 318.878 171.096 318.76 171.066C318.641 171.036 318.532 170.976 318.445 170.89C318.35 170.777 318.425 170.642 318.875 170.081Z" fill="#634DBC"/>
</g>
<defs>
<clipPath id="clip0_179_4069">
<rect width="288.594" height="285.897" fill="white" transform="translate(0.128174 193.845) rotate(-50.6749)"/>
</clipPath>
</defs>
</svg>
